G75*
G70*
%OFA0B0*%
%FSLAX24Y24*%
%IPPOS*%
%LPD*%
%AMOC8*
5,1,8,0,0,1.08239X$1,22.5*
%
%ADD10C,0.0100*%
%ADD11C,0.0110*%
%ADD12C,0.0080*%
%ADD13C,0.0060*%
%ADD14C,0.0020*%
%ADD15C,0.0050*%
%ADD16R,0.0059X0.0118*%
%ADD17R,0.0118X0.0118*%
%ADD18C,0.0040*%
D10*
X001693Y010651D02*
X039693Y010651D01*
X040693Y011651D01*
X040693Y015651D01*
X041693Y016651D01*
X041693Y030151D01*
X040693Y031151D01*
X040693Y031651D01*
X001693Y031651D01*
X009943Y035401D02*
X015943Y035401D01*
X015943Y039401D01*
X009943Y039401D01*
X009943Y035401D01*
D11*
X012295Y035730D02*
X012393Y035631D01*
X012590Y035631D01*
X012689Y035730D01*
X012689Y035828D01*
X012590Y035926D01*
X012393Y035926D01*
X012295Y036025D01*
X012295Y036123D01*
X012393Y036222D01*
X012590Y036222D01*
X012689Y036123D01*
X012940Y036222D02*
X012940Y035631D01*
X012940Y035926D02*
X013333Y035926D01*
X013333Y035631D02*
X013333Y036222D01*
X013584Y036222D02*
X013584Y035631D01*
X013879Y035631D01*
X013978Y035730D01*
X013978Y036123D01*
X013879Y036222D01*
X013584Y036222D01*
X013799Y036631D02*
X013996Y036631D01*
X013897Y036631D02*
X013897Y037222D01*
X013799Y037222D02*
X013996Y037222D01*
X014229Y037222D02*
X014622Y036631D01*
X014622Y037222D01*
X014229Y037222D02*
X014229Y036631D01*
X014229Y036222D02*
X014622Y035631D01*
X014622Y036222D01*
X014229Y036222D02*
X014229Y035631D01*
X013351Y036631D02*
X013548Y036828D01*
X013548Y037222D01*
X013154Y037222D02*
X013154Y036828D01*
X013351Y036631D01*
X013235Y037631D02*
X013333Y037730D01*
X013333Y037926D01*
X013136Y037926D01*
X012940Y038123D02*
X012940Y037730D01*
X013038Y037631D01*
X013235Y037631D01*
X013584Y037631D02*
X013584Y038222D01*
X013978Y037631D01*
X013978Y038222D01*
X014229Y038222D02*
X014524Y038222D01*
X014622Y038123D01*
X014622Y037730D01*
X014524Y037631D01*
X014229Y037631D01*
X014229Y038222D01*
X014363Y038631D02*
X014363Y039222D01*
X014166Y039222D02*
X014560Y039222D01*
X013915Y039222D02*
X013915Y038730D01*
X013817Y038631D01*
X013620Y038631D01*
X013522Y038730D01*
X013522Y039222D01*
X013271Y039123D02*
X013271Y038730D01*
X013172Y038631D01*
X012975Y038631D01*
X012877Y038730D01*
X012877Y039123D01*
X012975Y039222D01*
X013172Y039222D01*
X013271Y039123D01*
X012626Y039222D02*
X012626Y038828D01*
X012429Y038631D01*
X012233Y038828D01*
X012233Y039222D01*
X013038Y038222D02*
X012940Y038123D01*
X013038Y038222D02*
X013235Y038222D01*
X013333Y038123D01*
X005075Y039091D02*
X005075Y039484D01*
X004682Y039484D02*
X004682Y039091D01*
X004879Y038894D01*
X005075Y039091D01*
X004431Y039189D02*
X004037Y039189D01*
X004333Y039484D01*
X004333Y038894D01*
X003786Y038894D02*
X003393Y038894D01*
X003786Y039287D01*
X003786Y039386D01*
X003688Y039484D01*
X003491Y039484D01*
X003393Y039386D01*
X003142Y039189D02*
X002748Y039189D01*
X002945Y039386D02*
X002945Y038992D01*
X002839Y026284D02*
X002642Y026087D01*
X002839Y025890D01*
X002248Y025890D01*
X002248Y025639D02*
X002839Y025639D01*
X002839Y025246D01*
X002740Y024995D02*
X002347Y024995D01*
X002248Y024896D01*
X002248Y024699D01*
X002347Y024601D01*
X002248Y024350D02*
X002248Y023956D01*
X002248Y024153D02*
X002839Y024153D01*
X002642Y024350D01*
X002740Y024601D02*
X002839Y024699D01*
X002839Y024896D01*
X002740Y024995D01*
X002543Y025442D02*
X002543Y025639D01*
X002248Y026284D02*
X002839Y026284D01*
X002839Y018784D02*
X002642Y018587D01*
X002839Y018390D01*
X002248Y018390D01*
X002248Y018139D02*
X002839Y018139D01*
X002839Y017746D01*
X002740Y017495D02*
X002347Y017495D01*
X002248Y017396D01*
X002248Y017199D01*
X002347Y017101D01*
X002248Y016850D02*
X002642Y016456D01*
X002740Y016456D01*
X002839Y016555D01*
X002839Y016752D01*
X002740Y016850D01*
X002740Y017101D02*
X002839Y017199D01*
X002839Y017396D01*
X002740Y017495D01*
X002543Y017942D02*
X002543Y018139D01*
X002248Y018784D02*
X002839Y018784D01*
X002248Y016850D02*
X002248Y016456D01*
X019571Y001645D02*
X019571Y001547D01*
X019571Y001350D02*
X019571Y000956D01*
X019473Y000956D02*
X019670Y000956D01*
X019902Y001055D02*
X020001Y000956D01*
X020296Y000956D01*
X020547Y001055D02*
X020645Y001153D01*
X020941Y001153D01*
X020941Y001251D02*
X020941Y000956D01*
X020645Y000956D01*
X020547Y001055D01*
X020645Y001350D02*
X020842Y001350D01*
X020941Y001251D01*
X021191Y000956D02*
X021388Y000956D01*
X021290Y000956D02*
X021290Y001547D01*
X021191Y001547D01*
X020296Y001350D02*
X020001Y001350D01*
X019902Y001251D01*
X019902Y001055D01*
X019571Y001350D02*
X019473Y001350D01*
X019222Y001350D02*
X018927Y001350D01*
X018828Y001251D01*
X018828Y001055D01*
X018927Y000956D01*
X019222Y000956D01*
X019222Y001547D01*
X018577Y001251D02*
X018577Y001153D01*
X018184Y001153D01*
X018184Y001055D02*
X018184Y001251D01*
X018282Y001350D01*
X018479Y001350D01*
X018577Y001251D01*
X018479Y000956D02*
X018282Y000956D01*
X018184Y001055D01*
X017933Y000956D02*
X017933Y001547D01*
X017736Y001350D01*
X017539Y001547D01*
X017539Y000956D01*
X016644Y001055D02*
X016545Y001153D01*
X016349Y001153D01*
X016250Y001251D01*
X016349Y001350D01*
X016644Y001350D01*
X016644Y001055D02*
X016545Y000956D01*
X016250Y000956D01*
X015999Y001153D02*
X015606Y001153D01*
X015606Y001055D02*
X015606Y001251D01*
X015704Y001350D01*
X015901Y001350D01*
X015999Y001251D01*
X015999Y001153D01*
X015901Y000956D02*
X015704Y000956D01*
X015606Y001055D01*
X015355Y000956D02*
X015355Y001251D01*
X015256Y001350D01*
X015059Y001350D01*
X014961Y001251D01*
X014710Y001350D02*
X014710Y000858D01*
X014612Y000759D01*
X014513Y000759D01*
X014415Y000956D02*
X014710Y000956D01*
X014961Y000956D02*
X014961Y001547D01*
X014710Y001350D02*
X014415Y001350D01*
X014317Y001251D01*
X014317Y001055D01*
X014415Y000956D01*
X014066Y000956D02*
X014066Y001350D01*
X014066Y000956D02*
X013770Y000956D01*
X013672Y001055D01*
X013672Y001350D01*
X013421Y001251D02*
X013027Y001251D01*
X013027Y000956D02*
X013027Y001547D01*
X013421Y001547D02*
X013421Y000956D01*
X012132Y000956D02*
X012132Y001547D01*
X012132Y001350D02*
X011837Y001350D01*
X011738Y001251D01*
X011738Y001055D01*
X011837Y000956D01*
X012132Y000956D01*
X011497Y001350D02*
X011398Y001350D01*
X011201Y001153D01*
X011201Y000956D02*
X011201Y001350D01*
X010950Y001251D02*
X010950Y000956D01*
X010655Y000956D01*
X010557Y001055D01*
X010655Y001153D01*
X010950Y001153D01*
X010950Y001251D02*
X010852Y001350D01*
X010655Y001350D01*
X010306Y001350D02*
X010306Y001055D01*
X010208Y000956D01*
X010109Y001055D01*
X010011Y000956D01*
X009912Y001055D01*
X009912Y001350D01*
X009661Y001251D02*
X009563Y001350D01*
X009366Y001350D01*
X009268Y001251D01*
X009268Y001055D01*
X009366Y000956D01*
X009563Y000956D01*
X009661Y001055D01*
X009661Y001251D01*
X009017Y001251D02*
X008623Y001251D01*
X008623Y000956D02*
X008623Y001547D01*
X009017Y001547D02*
X009017Y000956D01*
X022266Y000956D02*
X022463Y000956D01*
X022364Y000956D02*
X022364Y001547D01*
X022266Y001547D02*
X022463Y001547D01*
X022695Y001350D02*
X022991Y001350D01*
X023089Y001251D01*
X023089Y000956D01*
X023340Y000956D02*
X023635Y000956D01*
X023734Y001055D01*
X023635Y001153D01*
X023438Y001153D01*
X023340Y001251D01*
X023438Y001350D01*
X023734Y001350D01*
X023984Y001350D02*
X024181Y001350D01*
X024083Y001448D02*
X024083Y001055D01*
X024181Y000956D01*
X024414Y000956D02*
X024611Y000956D01*
X024513Y000956D02*
X024513Y001350D01*
X024414Y001350D01*
X024513Y001547D02*
X024513Y001645D01*
X024844Y001350D02*
X025041Y001350D01*
X024942Y001448D02*
X024942Y001055D01*
X025041Y000956D01*
X025274Y001055D02*
X025372Y000956D01*
X025667Y000956D01*
X025667Y001350D01*
X025918Y001350D02*
X026115Y001350D01*
X026016Y001448D02*
X026016Y001055D01*
X026115Y000956D01*
X026348Y001055D02*
X026348Y001251D01*
X026446Y001350D01*
X026643Y001350D01*
X026741Y001251D01*
X026741Y001153D01*
X026348Y001153D01*
X026348Y001055D02*
X026446Y000956D01*
X026643Y000956D01*
X027637Y000956D02*
X028030Y001350D01*
X028030Y001448D01*
X027932Y001547D01*
X027735Y001547D01*
X027637Y001448D01*
X027637Y000956D02*
X028030Y000956D01*
X028281Y001055D02*
X028675Y001448D01*
X028675Y001055D01*
X028577Y000956D01*
X028380Y000956D01*
X028281Y001055D01*
X028281Y001448D01*
X028380Y001547D01*
X028577Y001547D01*
X028675Y001448D01*
X028926Y001350D02*
X029123Y001547D01*
X029123Y000956D01*
X029319Y000956D02*
X028926Y000956D01*
X029570Y000956D02*
X029964Y001350D01*
X029964Y001448D01*
X029866Y001547D01*
X029669Y001547D01*
X029570Y001448D01*
X029570Y000956D02*
X029964Y000956D01*
X031123Y000956D02*
X031123Y001547D01*
X031418Y001547D01*
X031517Y001448D01*
X031517Y001251D01*
X031418Y001153D01*
X031123Y001153D01*
X031768Y000956D02*
X032161Y001547D01*
X032412Y001547D02*
X032806Y000956D01*
X032806Y001547D01*
X033057Y001350D02*
X033057Y001251D01*
X033155Y001251D01*
X033155Y001350D01*
X033057Y001350D01*
X033057Y001055D02*
X033057Y000956D01*
X033155Y000956D01*
X033155Y001055D01*
X033057Y001055D01*
X032412Y000956D02*
X032412Y001547D01*
X034024Y001448D02*
X034024Y001055D01*
X034417Y001448D01*
X034417Y001055D01*
X034319Y000956D01*
X034122Y000956D01*
X034024Y001055D01*
X034024Y001448D02*
X034122Y001547D01*
X034319Y001547D01*
X034417Y001448D01*
X034668Y001448D02*
X034766Y001547D01*
X034963Y001547D01*
X035062Y001448D01*
X034668Y001055D01*
X034766Y000956D01*
X034963Y000956D01*
X035062Y001055D01*
X035062Y001448D01*
X035313Y001448D02*
X035411Y001547D01*
X035608Y001547D01*
X035706Y001448D01*
X035313Y001055D01*
X035411Y000956D01*
X035608Y000956D01*
X035706Y001055D01*
X035706Y001448D01*
X035957Y001448D02*
X036056Y001547D01*
X036252Y001547D01*
X036351Y001448D01*
X036351Y001350D01*
X036252Y001251D01*
X036351Y001153D01*
X036351Y001055D01*
X036252Y000956D01*
X036056Y000956D01*
X035957Y001055D01*
X036154Y001251D02*
X036252Y001251D01*
X036602Y001153D02*
X036700Y001251D01*
X036897Y001251D01*
X036995Y001153D01*
X036995Y001055D01*
X036897Y000956D01*
X036700Y000956D01*
X036602Y001055D01*
X036602Y001153D01*
X036700Y001251D02*
X036602Y001350D01*
X036602Y001448D01*
X036700Y001547D01*
X036897Y001547D01*
X036995Y001448D01*
X036995Y001350D01*
X036897Y001251D01*
X037246Y001251D02*
X037640Y001251D01*
X037541Y000956D02*
X037541Y001547D01*
X037246Y001251D01*
X035313Y001055D02*
X035313Y001448D01*
X034668Y001448D02*
X034668Y001055D01*
X025274Y001055D02*
X025274Y001350D01*
X022695Y001350D02*
X022695Y000956D01*
D12*
X002187Y000691D02*
X001977Y000691D01*
X001977Y001112D01*
X002187Y001112D01*
X002257Y001041D01*
X002257Y000761D01*
X002187Y000691D01*
X002437Y000691D02*
X002718Y000691D01*
X002578Y000691D02*
X002578Y001112D01*
X002437Y000971D01*
X002898Y000901D02*
X003178Y000901D01*
X003108Y000691D02*
X003108Y001112D01*
X002898Y000901D01*
X002898Y001691D02*
X003178Y001971D01*
X003178Y002041D01*
X003108Y002112D01*
X002968Y002112D01*
X002898Y002041D01*
X002578Y002112D02*
X002578Y001691D01*
X002718Y001691D02*
X002437Y001691D01*
X002257Y001761D02*
X002257Y002041D01*
X002187Y002112D01*
X001977Y002112D01*
X001977Y001691D01*
X002187Y001691D01*
X002257Y001761D01*
X002437Y001971D02*
X002578Y002112D01*
X002898Y001691D02*
X003178Y001691D01*
X005608Y001691D02*
X005608Y002112D01*
X005818Y002112D01*
X005888Y002041D01*
X005888Y001761D01*
X005818Y001691D01*
X005608Y001691D01*
X006069Y001691D02*
X006349Y001691D01*
X006209Y001691D02*
X006209Y002112D01*
X006069Y001971D01*
X006529Y002041D02*
X006599Y002112D01*
X006739Y002112D01*
X006809Y002041D01*
X006809Y001971D01*
X006739Y001901D01*
X006809Y001831D01*
X006809Y001761D01*
X006739Y001691D01*
X006599Y001691D01*
X006529Y001761D01*
X006669Y001901D02*
X006739Y001901D01*
X006809Y001112D02*
X006529Y001112D01*
X006529Y000901D01*
X006669Y000971D01*
X006739Y000971D01*
X006809Y000901D01*
X006809Y000761D01*
X006739Y000691D01*
X006599Y000691D01*
X006529Y000761D01*
X006349Y000691D02*
X006069Y000691D01*
X006209Y000691D02*
X006209Y001112D01*
X006069Y000971D01*
X005888Y001041D02*
X005888Y000761D01*
X005818Y000691D01*
X005608Y000691D01*
X005608Y001112D01*
X005818Y001112D01*
X005888Y001041D01*
X005818Y002691D02*
X005888Y002761D01*
X005888Y003041D01*
X005818Y003112D01*
X005608Y003112D01*
X005608Y002691D01*
X005818Y002691D01*
X006069Y002691D02*
X006349Y002691D01*
X006209Y002691D02*
X006209Y003112D01*
X006069Y002971D01*
X006529Y002971D02*
X006669Y003112D01*
X006669Y002691D01*
X006529Y002691D02*
X006809Y002691D01*
X003178Y002761D02*
X003108Y002691D01*
X002968Y002691D01*
X002898Y002761D01*
X003178Y003041D01*
X003178Y002761D01*
X002898Y002761D02*
X002898Y003041D01*
X002968Y003112D01*
X003108Y003112D01*
X003178Y003041D01*
X002718Y002691D02*
X002437Y002691D01*
X002578Y002691D02*
X002578Y003112D01*
X002437Y002971D01*
X002257Y003041D02*
X002187Y003112D01*
X001977Y003112D01*
X001977Y002691D01*
X002187Y002691D01*
X002257Y002761D01*
X002257Y003041D01*
X002437Y003691D02*
X002648Y003691D01*
X002718Y003761D01*
X002718Y004041D01*
X002648Y004112D01*
X002437Y004112D01*
X002437Y003691D01*
X002898Y003761D02*
X002898Y003831D01*
X002968Y003901D01*
X003108Y003901D01*
X003178Y003831D01*
X003178Y003761D01*
X003108Y003691D01*
X002968Y003691D01*
X002898Y003761D01*
X002968Y003901D02*
X002898Y003971D01*
X002898Y004041D01*
X002968Y004112D01*
X003108Y004112D01*
X003178Y004041D01*
X003178Y003971D01*
X003108Y003901D01*
X005608Y004112D02*
X005608Y003691D01*
X005818Y003691D01*
X005888Y003761D01*
X005888Y004041D01*
X005818Y004112D01*
X005608Y004112D01*
X006069Y004041D02*
X006069Y003971D01*
X006139Y003901D01*
X006349Y003901D01*
X006349Y003761D02*
X006349Y004041D01*
X006279Y004112D01*
X006139Y004112D01*
X006069Y004041D01*
X006069Y003761D02*
X006139Y003691D01*
X006279Y003691D01*
X006349Y003761D01*
X006069Y004691D02*
X006069Y004761D01*
X006349Y005041D01*
X006349Y005112D01*
X006069Y005112D01*
X005888Y005041D02*
X005888Y004761D01*
X005818Y004691D01*
X005608Y004691D01*
X005608Y005112D01*
X005818Y005112D01*
X005888Y005041D01*
X003178Y005112D02*
X003038Y005041D01*
X002898Y004901D01*
X003108Y004901D01*
X003178Y004831D01*
X003178Y004761D01*
X003108Y004691D01*
X002968Y004691D01*
X002898Y004761D01*
X002898Y004901D01*
X002718Y004761D02*
X002718Y005041D01*
X002648Y005112D01*
X002437Y005112D01*
X002437Y004691D01*
X002648Y004691D01*
X002718Y004761D01*
X002648Y005691D02*
X002718Y005761D01*
X002718Y006041D01*
X002648Y006112D01*
X002437Y006112D01*
X002437Y005691D01*
X002648Y005691D01*
X002898Y005901D02*
X003178Y005901D01*
X003108Y005691D02*
X003108Y006112D01*
X002898Y005901D01*
X002898Y006691D02*
X003178Y006971D01*
X003178Y007041D01*
X003108Y007112D01*
X002968Y007112D01*
X002898Y007041D01*
X002718Y007041D02*
X002648Y007112D01*
X002437Y007112D01*
X002437Y006691D01*
X002648Y006691D01*
X002718Y006761D01*
X002718Y007041D01*
X002898Y006691D02*
X003178Y006691D01*
X005608Y006691D02*
X005608Y007112D01*
X005818Y007112D01*
X005888Y007041D01*
X005888Y006761D01*
X005818Y006691D01*
X005608Y006691D01*
X006069Y006761D02*
X006139Y006691D01*
X006279Y006691D01*
X006349Y006761D01*
X006349Y006831D01*
X006279Y006901D01*
X006209Y006901D01*
X006279Y006901D02*
X006349Y006971D01*
X006349Y007041D01*
X006279Y007112D01*
X006139Y007112D01*
X006069Y007041D01*
X007233Y006969D02*
X007654Y006969D01*
X007233Y006689D01*
X007654Y006689D01*
X007654Y007136D02*
X007654Y007276D01*
X007654Y007206D02*
X007233Y007206D01*
X007233Y007276D02*
X007233Y007136D01*
X007233Y007456D02*
X007513Y007456D01*
X007654Y007596D01*
X007513Y007736D01*
X007233Y007736D01*
X007193Y007901D02*
X007693Y007901D01*
X007943Y008151D01*
X008193Y007901D01*
X008693Y007901D01*
X008943Y008151D01*
X009193Y007901D01*
X009693Y007901D01*
X009943Y008151D01*
X009943Y008651D01*
X009693Y008901D01*
X009193Y008901D01*
X008943Y008651D01*
X008693Y008901D01*
X008193Y008901D01*
X007943Y008651D01*
X007693Y008901D01*
X007193Y008901D01*
X006943Y008651D01*
X006943Y008151D01*
X007193Y007901D01*
X007443Y007736D02*
X007443Y007456D01*
X008233Y007456D02*
X008654Y007456D01*
X008513Y007596D01*
X008654Y007736D01*
X008233Y007736D01*
X008233Y007276D02*
X008654Y007276D01*
X008654Y006996D01*
X008584Y006815D02*
X008303Y006815D01*
X008233Y006745D01*
X008233Y006605D01*
X008303Y006535D01*
X008584Y006535D02*
X008654Y006605D01*
X008654Y006745D01*
X008584Y006815D01*
X008443Y007136D02*
X008443Y007276D01*
X009233Y007276D02*
X009513Y007276D01*
X009654Y007136D01*
X009513Y006996D01*
X009233Y006996D01*
X009303Y006815D02*
X009233Y006745D01*
X009233Y006605D01*
X009303Y006535D01*
X009303Y006815D02*
X009584Y006815D01*
X009654Y006745D01*
X009654Y006605D01*
X009584Y006535D01*
X009443Y006996D02*
X009443Y007276D01*
X009303Y007456D02*
X009584Y007456D01*
X009654Y007526D01*
X009654Y007736D01*
X009233Y007736D01*
X009233Y007526D01*
X009303Y007456D01*
X010983Y007565D02*
X010983Y007285D01*
X010983Y007105D02*
X011404Y007105D01*
X011404Y006825D01*
X011193Y006965D02*
X011193Y007105D01*
X011404Y007285D02*
X011404Y007565D01*
X010983Y007565D01*
X010983Y007746D02*
X011123Y007886D01*
X011123Y007816D02*
X011123Y008026D01*
X010983Y008026D02*
X011404Y008026D01*
X011404Y007816D01*
X011334Y007746D01*
X011193Y007746D01*
X011123Y007816D01*
X011193Y007565D02*
X011193Y007425D01*
X011983Y007355D02*
X012053Y007285D01*
X012334Y007285D01*
X012404Y007355D01*
X012404Y007565D01*
X011983Y007565D01*
X011983Y007355D01*
X011983Y007746D02*
X012404Y007746D01*
X012404Y008026D02*
X011983Y007746D01*
X011983Y008026D02*
X012404Y008026D01*
X012334Y008206D02*
X012404Y008276D01*
X012404Y008416D01*
X012334Y008486D01*
X012053Y008486D01*
X011983Y008416D01*
X011983Y008276D01*
X012053Y008206D01*
X012193Y008206D01*
X012193Y008346D01*
X011943Y008651D02*
X011693Y008901D01*
X011443Y008651D01*
X010943Y008651D01*
X010693Y008901D01*
X010693Y009401D01*
X010943Y009651D01*
X011443Y009651D01*
X011693Y009401D01*
X011943Y009651D01*
X012443Y009651D01*
X012693Y009401D01*
X012943Y009651D01*
X013443Y009651D01*
X013693Y009401D01*
X013943Y009651D01*
X014443Y009651D01*
X014693Y009401D01*
X014943Y009651D01*
X015443Y009651D01*
X015693Y009401D01*
X015943Y009651D01*
X016443Y009651D01*
X016693Y009401D01*
X016943Y009651D01*
X017443Y009651D01*
X017693Y009401D01*
X017943Y009651D01*
X018443Y009651D01*
X018693Y009401D01*
X018693Y008901D01*
X018443Y008651D01*
X017943Y008651D01*
X017693Y008901D01*
X017443Y008651D01*
X016943Y008651D01*
X016693Y008901D01*
X016443Y008651D01*
X015943Y008651D01*
X015693Y008901D01*
X015443Y008651D01*
X014943Y008651D01*
X014693Y008901D01*
X014443Y008651D01*
X013943Y008651D01*
X013693Y008901D01*
X013443Y008651D01*
X012943Y008651D01*
X012693Y008901D01*
X012443Y008651D01*
X011943Y008651D01*
X011404Y008346D02*
X011263Y008206D01*
X010983Y008206D01*
X011193Y008206D02*
X011193Y008486D01*
X011263Y008486D02*
X011404Y008346D01*
X011263Y008486D02*
X010983Y008486D01*
X012983Y008486D02*
X012983Y008276D01*
X013053Y008206D01*
X013334Y008206D01*
X013404Y008276D01*
X013404Y008486D01*
X012983Y008486D01*
X013983Y008486D02*
X013983Y008276D01*
X014053Y008206D01*
X014334Y008206D01*
X014404Y008276D01*
X014404Y008486D01*
X013983Y008486D01*
X014983Y008486D02*
X014983Y008276D01*
X015053Y008206D01*
X015334Y008206D01*
X015404Y008276D01*
X015404Y008486D01*
X014983Y008486D01*
X015983Y008486D02*
X015983Y008276D01*
X016053Y008206D01*
X016334Y008206D01*
X016404Y008276D01*
X016404Y008486D01*
X015983Y008486D01*
X016983Y008486D02*
X016983Y008276D01*
X017053Y008206D01*
X017334Y008206D01*
X017404Y008276D01*
X017404Y008486D01*
X016983Y008486D01*
X017983Y008486D02*
X017983Y008276D01*
X018053Y008206D01*
X018334Y008206D01*
X018404Y008276D01*
X018404Y008486D01*
X017983Y008486D01*
X019193Y008901D02*
X019443Y008651D01*
X019943Y008651D01*
X020193Y008901D01*
X020443Y008651D01*
X020943Y008651D01*
X021193Y008901D01*
X021443Y008651D01*
X021943Y008651D01*
X022193Y008901D01*
X022443Y008651D01*
X022943Y008651D01*
X023193Y008901D01*
X023443Y008651D01*
X023943Y008651D01*
X024193Y008901D01*
X024443Y008651D01*
X024943Y008651D01*
X025193Y008901D01*
X025443Y008651D01*
X025943Y008651D01*
X026193Y008901D01*
X026443Y008651D01*
X026943Y008651D01*
X027193Y008901D01*
X027193Y009401D01*
X026943Y009651D01*
X026443Y009651D01*
X026193Y009401D01*
X025943Y009651D01*
X025443Y009651D01*
X025193Y009401D01*
X024943Y009651D01*
X024443Y009651D01*
X024193Y009401D01*
X023943Y009651D01*
X023443Y009651D01*
X023193Y009401D01*
X022943Y009651D01*
X022443Y009651D01*
X022193Y009401D01*
X021943Y009651D01*
X021443Y009651D01*
X021193Y009401D01*
X020943Y009651D01*
X020443Y009651D01*
X020193Y009401D01*
X019943Y009651D01*
X019443Y009651D01*
X019193Y009401D01*
X019193Y008901D01*
X019483Y008486D02*
X019483Y008276D01*
X019553Y008206D01*
X019834Y008206D01*
X019904Y008276D01*
X019904Y008486D01*
X019483Y008486D01*
X020483Y008486D02*
X020483Y008276D01*
X020553Y008206D01*
X020834Y008206D01*
X020904Y008276D01*
X020904Y008486D01*
X020483Y008486D01*
X021483Y008486D02*
X021483Y008276D01*
X021553Y008206D01*
X021834Y008206D01*
X021904Y008276D01*
X021904Y008486D01*
X021483Y008486D01*
X022483Y008486D02*
X022483Y008276D01*
X022553Y008206D01*
X022834Y008206D01*
X022904Y008276D01*
X022904Y008486D01*
X022483Y008486D01*
X023483Y008486D02*
X023483Y008276D01*
X023553Y008206D01*
X023834Y008206D01*
X023904Y008276D01*
X023904Y008486D01*
X023483Y008486D01*
X024483Y008486D02*
X024483Y008276D01*
X024553Y008206D01*
X024834Y008206D01*
X024904Y008276D01*
X024904Y008486D01*
X024483Y008486D01*
X025483Y008346D02*
X025904Y008346D01*
X025904Y008486D02*
X025904Y008206D01*
X025904Y008026D02*
X025483Y007746D01*
X025553Y007565D02*
X025834Y007285D01*
X025553Y007285D01*
X025483Y007355D01*
X025483Y007495D01*
X025553Y007565D01*
X025834Y007565D01*
X025904Y007495D01*
X025904Y007355D01*
X025834Y007285D01*
X025904Y007746D02*
X025483Y008026D01*
X024904Y007956D02*
X024834Y008026D01*
X024904Y007956D02*
X024904Y007816D01*
X024834Y007746D01*
X024763Y007746D01*
X024483Y008026D01*
X024483Y007746D01*
X023904Y007816D02*
X023834Y007746D01*
X023763Y007746D01*
X023693Y007816D01*
X023623Y007746D01*
X023553Y007746D01*
X023483Y007816D01*
X023483Y007956D01*
X023553Y008026D01*
X023693Y007886D02*
X023693Y007816D01*
X023904Y007816D02*
X023904Y007956D01*
X023834Y008026D01*
X022904Y007816D02*
X022693Y008026D01*
X022693Y007746D01*
X022483Y007816D02*
X022904Y007816D01*
X021904Y007746D02*
X021904Y008026D01*
X021693Y008026D01*
X021763Y007886D01*
X021763Y007816D01*
X021693Y007746D01*
X021553Y007746D01*
X021483Y007816D01*
X021483Y007956D01*
X021553Y008026D01*
X020904Y007746D02*
X020834Y007886D01*
X020693Y008026D01*
X020693Y007816D01*
X020623Y007746D01*
X020553Y007746D01*
X020483Y007816D01*
X020483Y007956D01*
X020553Y008026D01*
X020693Y008026D01*
X019904Y008026D02*
X019904Y007746D01*
X019834Y007746D01*
X019553Y008026D01*
X019483Y008026D01*
X018404Y007956D02*
X018404Y007816D01*
X018334Y007746D01*
X018263Y007746D01*
X018193Y007816D01*
X018193Y007956D01*
X018263Y008026D01*
X018334Y008026D01*
X018404Y007956D01*
X018193Y007956D02*
X018123Y008026D01*
X018053Y008026D01*
X017983Y007956D01*
X017983Y007816D01*
X018053Y007746D01*
X018123Y007746D01*
X018193Y007816D01*
X017404Y007816D02*
X017404Y007956D01*
X017334Y008026D01*
X017263Y008026D01*
X017193Y007956D01*
X017193Y007746D01*
X017053Y007746D02*
X017334Y007746D01*
X017404Y007816D01*
X017053Y007746D02*
X016983Y007816D01*
X016983Y007956D01*
X017053Y008026D01*
X016404Y007886D02*
X015983Y007886D01*
X015983Y008026D02*
X015983Y007746D01*
X016053Y007565D02*
X016334Y007285D01*
X016053Y007285D01*
X015983Y007355D01*
X015983Y007495D01*
X016053Y007565D01*
X016334Y007565D01*
X016404Y007495D01*
X016404Y007355D01*
X016334Y007285D01*
X016404Y007886D02*
X016263Y008026D01*
X015404Y007886D02*
X014983Y007886D01*
X014983Y008026D02*
X014983Y007746D01*
X014983Y007565D02*
X014983Y007285D01*
X014983Y007425D02*
X015404Y007425D01*
X015263Y007565D01*
X015404Y007886D02*
X015263Y008026D01*
X014404Y007886D02*
X013983Y007886D01*
X013983Y008026D02*
X013983Y007746D01*
X013983Y007565D02*
X014263Y007285D01*
X014334Y007285D01*
X014404Y007355D01*
X014404Y007495D01*
X014334Y007565D01*
X014404Y007886D02*
X014263Y008026D01*
X013983Y007565D02*
X013983Y007285D01*
X013404Y007355D02*
X013334Y007285D01*
X013263Y007285D01*
X013193Y007355D01*
X013123Y007285D01*
X013053Y007285D01*
X012983Y007355D01*
X012983Y007495D01*
X013053Y007565D01*
X012983Y007746D02*
X012983Y008026D01*
X012983Y007886D02*
X013404Y007886D01*
X013263Y008026D01*
X013334Y007565D02*
X013404Y007495D01*
X013404Y007355D01*
X013193Y007355D02*
X013193Y007425D01*
X006411Y007691D02*
X006131Y007691D01*
X006271Y007691D02*
X006271Y008112D01*
X006131Y007971D01*
X005951Y007971D02*
X005811Y008112D01*
X005671Y007971D01*
X005671Y007691D01*
X005671Y007901D02*
X005951Y007901D01*
X005951Y007971D02*
X005951Y007691D01*
X003059Y007761D02*
X003059Y008041D01*
X002989Y008112D01*
X002779Y008112D01*
X002779Y007691D01*
X002989Y007691D01*
X003059Y007761D01*
X002599Y007691D02*
X002599Y008112D01*
X002319Y008112D02*
X002599Y007691D01*
X002319Y007691D02*
X002319Y008112D01*
X002138Y008041D02*
X002068Y008112D01*
X001928Y008112D01*
X001858Y008041D01*
X001858Y007761D01*
X001928Y007691D01*
X002068Y007691D01*
X002138Y007761D01*
X002138Y007901D01*
X001998Y007901D01*
X001928Y008691D02*
X002068Y008691D01*
X002138Y008761D01*
X002138Y008901D01*
X001998Y008901D01*
X001858Y009041D02*
X001858Y008761D01*
X001928Y008691D01*
X001858Y009041D02*
X001928Y009112D01*
X002068Y009112D01*
X002138Y009041D01*
X002319Y009112D02*
X002599Y008691D01*
X002599Y009112D01*
X002779Y009112D02*
X002989Y009112D01*
X003059Y009041D01*
X003059Y008761D01*
X002989Y008691D01*
X002779Y008691D01*
X002779Y009112D01*
X002319Y009112D02*
X002319Y008691D01*
X005608Y008691D02*
X005608Y008971D01*
X005748Y009112D01*
X005888Y008971D01*
X005888Y008691D01*
X006069Y008761D02*
X006349Y009041D01*
X006349Y008761D01*
X006279Y008691D01*
X006139Y008691D01*
X006069Y008761D01*
X006069Y009041D01*
X006139Y009112D01*
X006279Y009112D01*
X006349Y009041D01*
X005888Y008901D02*
X005608Y008901D01*
X006943Y009526D02*
X007193Y009276D01*
X007693Y009276D01*
X007943Y009526D01*
X008193Y009276D01*
X008693Y009276D01*
X008943Y009526D01*
X009193Y009276D01*
X009693Y009276D01*
X009943Y009526D01*
X009943Y010026D01*
X009693Y010276D01*
X009193Y010276D01*
X008943Y010026D01*
X008693Y010276D01*
X008193Y010276D01*
X007943Y010026D01*
X007693Y010276D01*
X007193Y010276D01*
X006943Y010026D01*
X006943Y009526D01*
X010693Y011401D02*
X010943Y011151D01*
X011443Y011151D01*
X011693Y011401D01*
X011943Y011151D01*
X012443Y011151D01*
X012693Y011401D01*
X012943Y011151D01*
X013443Y011151D01*
X013693Y011401D01*
X013943Y011151D01*
X014443Y011151D01*
X014693Y011401D01*
X014943Y011151D01*
X015443Y011151D01*
X015693Y011401D01*
X015943Y011151D01*
X016443Y011151D01*
X016693Y011401D01*
X016943Y011151D01*
X017443Y011151D01*
X017693Y011401D01*
X017943Y011151D01*
X018443Y011151D01*
X018693Y011401D01*
X018693Y011901D01*
X018443Y012151D01*
X017943Y012151D01*
X017693Y011901D01*
X017443Y012151D01*
X016943Y012151D01*
X016693Y011901D01*
X016443Y012151D01*
X015943Y012151D01*
X015693Y011901D01*
X015443Y012151D01*
X014943Y012151D01*
X014693Y011901D01*
X014443Y012151D01*
X013943Y012151D01*
X013693Y011901D01*
X013443Y012151D01*
X012943Y012151D01*
X012693Y011901D01*
X012443Y012151D01*
X011943Y012151D01*
X011693Y011901D01*
X011443Y012151D01*
X010943Y012151D01*
X010693Y011901D01*
X010693Y011401D01*
X019193Y011401D02*
X019443Y011151D01*
X019943Y011151D01*
X020193Y011401D01*
X020443Y011151D01*
X020943Y011151D01*
X021193Y011401D01*
X021443Y011151D01*
X021943Y011151D01*
X022193Y011401D01*
X022443Y011151D01*
X022943Y011151D01*
X023193Y011401D01*
X023443Y011151D01*
X023943Y011151D01*
X024193Y011401D01*
X024443Y011151D01*
X024943Y011151D01*
X025193Y011401D01*
X025443Y011151D01*
X025943Y011151D01*
X026193Y011401D01*
X026443Y011151D01*
X026943Y011151D01*
X027193Y011401D01*
X027193Y011901D01*
X026943Y012151D01*
X026443Y012151D01*
X026193Y011901D01*
X025943Y012151D01*
X025443Y012151D01*
X025193Y011901D01*
X024943Y012151D01*
X024443Y012151D01*
X024193Y011901D01*
X023943Y012151D01*
X023443Y012151D01*
X023193Y011901D01*
X022943Y012151D01*
X022443Y012151D01*
X022193Y011901D01*
X021943Y012151D01*
X021443Y012151D01*
X021193Y011901D01*
X020943Y012151D01*
X020443Y012151D01*
X020193Y011901D01*
X019943Y012151D01*
X019443Y012151D01*
X019193Y011901D01*
X019193Y011401D01*
X027927Y013442D02*
X027927Y017321D01*
X027926Y017321D02*
X027925Y017342D01*
X027927Y017363D01*
X027932Y017383D01*
X027940Y017402D01*
X027951Y017419D01*
X027964Y017435D01*
X027980Y017448D01*
X027998Y017459D01*
X028017Y017467D01*
X028037Y017472D01*
X028038Y017471D02*
X028433Y017471D01*
X028433Y017451D02*
X028435Y017421D01*
X028440Y017391D01*
X028449Y017362D01*
X028462Y017335D01*
X028477Y017309D01*
X028496Y017285D01*
X028517Y017264D01*
X028541Y017245D01*
X028567Y017230D01*
X028594Y017217D01*
X028623Y017208D01*
X028653Y017203D01*
X028683Y017201D01*
X028713Y017203D01*
X028743Y017208D01*
X028772Y017217D01*
X028799Y017230D01*
X028825Y017245D01*
X028849Y017264D01*
X028870Y017285D01*
X028889Y017309D01*
X028904Y017335D01*
X028917Y017362D01*
X028926Y017391D01*
X028931Y017421D01*
X028933Y017451D01*
X028933Y017471D02*
X029265Y017471D01*
X029270Y017472D02*
X029295Y017473D01*
X029319Y017471D01*
X029343Y017465D01*
X029365Y017456D01*
X029386Y017443D01*
X029405Y017428D01*
X029422Y017410D01*
X029436Y017390D01*
X029447Y017369D01*
X029455Y017346D01*
X029460Y017322D01*
X029459Y017321D02*
X029459Y013481D01*
X029460Y013481D02*
X029458Y013458D01*
X029453Y013435D01*
X029444Y013413D01*
X029431Y013393D01*
X029416Y013375D01*
X029398Y013360D01*
X029378Y013347D01*
X029356Y013338D01*
X029333Y013333D01*
X029310Y013331D01*
X029309Y013331D02*
X028077Y013331D01*
X028077Y013330D02*
X028056Y013329D01*
X028035Y013331D01*
X028015Y013336D01*
X027996Y013344D01*
X027979Y013355D01*
X027963Y013368D01*
X027950Y013384D01*
X027939Y013402D01*
X027931Y013421D01*
X027926Y013441D01*
X028443Y012151D02*
X028193Y011901D01*
X028193Y011401D01*
X028443Y011151D01*
X028943Y011151D01*
X029193Y011401D01*
X029443Y011151D01*
X029943Y011151D01*
X030193Y011401D01*
X030443Y011151D01*
X030943Y011151D01*
X031193Y011401D01*
X031443Y011151D01*
X031943Y011151D01*
X032193Y011401D01*
X032443Y011151D01*
X032943Y011151D01*
X033193Y011401D01*
X033443Y011151D01*
X033943Y011151D01*
X034193Y011401D01*
X034443Y011151D01*
X034943Y011151D01*
X035193Y011401D01*
X035443Y011151D01*
X035943Y011151D01*
X036193Y011401D01*
X036193Y011901D01*
X035943Y012151D01*
X035443Y012151D01*
X035193Y011901D01*
X034943Y012151D01*
X034443Y012151D01*
X034193Y011901D01*
X033943Y012151D01*
X033443Y012151D01*
X033193Y011901D01*
X032943Y012151D01*
X032443Y012151D01*
X032193Y011901D01*
X031943Y012151D01*
X031443Y012151D01*
X031193Y011901D01*
X030943Y012151D01*
X030443Y012151D01*
X030193Y011901D01*
X029943Y012151D01*
X029443Y012151D01*
X029193Y011901D01*
X028943Y012151D01*
X028443Y012151D01*
X028443Y009651D02*
X028193Y009401D01*
X028193Y008901D01*
X028443Y008651D01*
X028943Y008651D01*
X029193Y008901D01*
X029443Y008651D01*
X029943Y008651D01*
X030193Y008901D01*
X030443Y008651D01*
X030943Y008651D01*
X031193Y008901D01*
X031443Y008651D01*
X031943Y008651D01*
X032193Y008901D01*
X032443Y008651D01*
X032943Y008651D01*
X033193Y008901D01*
X033443Y008651D01*
X033943Y008651D01*
X034193Y008901D01*
X034443Y008651D01*
X034943Y008651D01*
X035193Y008901D01*
X035443Y008651D01*
X035943Y008651D01*
X036193Y008901D01*
X036193Y009401D01*
X035943Y009651D01*
X035443Y009651D01*
X035193Y009401D01*
X034943Y009651D01*
X034443Y009651D01*
X034193Y009401D01*
X033943Y009651D01*
X033443Y009651D01*
X033193Y009401D01*
X032943Y009651D01*
X032443Y009651D01*
X032193Y009401D01*
X031943Y009651D01*
X031443Y009651D01*
X031193Y009401D01*
X030943Y009651D01*
X030443Y009651D01*
X030193Y009401D01*
X029943Y009651D01*
X029443Y009651D01*
X029193Y009401D01*
X028943Y009651D01*
X028443Y009651D01*
X028483Y008486D02*
X028483Y008276D01*
X028553Y008206D01*
X028834Y008206D01*
X028904Y008276D01*
X028904Y008486D01*
X028483Y008486D01*
X029483Y008486D02*
X029483Y008276D01*
X029553Y008206D01*
X029834Y008206D01*
X029904Y008276D01*
X029904Y008486D01*
X029483Y008486D01*
X030483Y008346D02*
X030904Y008346D01*
X030904Y008486D02*
X030904Y008206D01*
X030904Y008026D02*
X030483Y007746D01*
X030483Y007565D02*
X030763Y007285D01*
X030834Y007285D01*
X030904Y007355D01*
X030904Y007495D01*
X030834Y007565D01*
X030904Y007746D02*
X030483Y008026D01*
X030483Y007565D02*
X030483Y007285D01*
X029904Y007285D02*
X029904Y007565D01*
X029693Y007565D01*
X029763Y007425D01*
X029763Y007355D01*
X029693Y007285D01*
X029553Y007285D01*
X029483Y007355D01*
X029483Y007495D01*
X029553Y007565D01*
X029483Y007746D02*
X029483Y008026D01*
X029483Y007886D02*
X029904Y007886D01*
X029763Y008026D01*
X028904Y007886D02*
X028483Y007886D01*
X028483Y008026D02*
X028483Y007746D01*
X028693Y007565D02*
X028693Y007285D01*
X028483Y007355D02*
X028904Y007355D01*
X028693Y007565D01*
X028904Y007886D02*
X028763Y008026D01*
X026904Y008026D02*
X026483Y007746D01*
X026553Y007565D02*
X026834Y007285D01*
X026553Y007285D01*
X026483Y007355D01*
X026483Y007495D01*
X026553Y007565D01*
X026834Y007565D01*
X026904Y007495D01*
X026904Y007355D01*
X026834Y007285D01*
X026904Y007746D02*
X026483Y008026D01*
X026483Y008206D02*
X026623Y008346D01*
X026623Y008276D02*
X026623Y008486D01*
X026483Y008486D02*
X026904Y008486D01*
X026904Y008276D01*
X026834Y008206D01*
X026693Y008206D01*
X026623Y008276D01*
X028483Y007105D02*
X028904Y006825D01*
X028904Y006645D02*
X028904Y006365D01*
X028904Y006505D02*
X028483Y006505D01*
X028483Y006184D02*
X028904Y005904D01*
X028834Y005724D02*
X028904Y005654D01*
X028904Y005514D01*
X028834Y005444D01*
X028763Y005444D01*
X028693Y005514D01*
X028623Y005444D01*
X028553Y005444D01*
X028483Y005514D01*
X028483Y005654D01*
X028553Y005724D01*
X028483Y005904D02*
X028904Y006184D01*
X029483Y006184D02*
X029904Y005904D01*
X029834Y005724D02*
X029904Y005654D01*
X029904Y005514D01*
X029834Y005444D01*
X029763Y005444D01*
X029693Y005514D01*
X029623Y005444D01*
X029553Y005444D01*
X029483Y005514D01*
X029483Y005654D01*
X029553Y005724D01*
X029483Y005904D02*
X029904Y006184D01*
X029834Y006365D02*
X029693Y006365D01*
X029623Y006435D01*
X029623Y006645D01*
X029483Y006645D02*
X029904Y006645D01*
X029904Y006435D01*
X029834Y006365D01*
X029623Y006505D02*
X029483Y006365D01*
X029904Y006825D02*
X029483Y007105D01*
X031483Y007285D02*
X031483Y007565D01*
X031763Y007285D01*
X031834Y007285D01*
X031904Y007355D01*
X031904Y007495D01*
X031834Y007565D01*
X031904Y007746D02*
X031483Y008026D01*
X031483Y008206D02*
X031623Y008346D01*
X031623Y008276D02*
X031623Y008486D01*
X031483Y008486D02*
X031904Y008486D01*
X031904Y008276D01*
X031834Y008206D01*
X031693Y008206D01*
X031623Y008276D01*
X031904Y008026D02*
X031483Y007746D01*
X032483Y007746D02*
X032904Y008026D01*
X032904Y008206D02*
X032904Y008486D01*
X032904Y008346D02*
X032483Y008346D01*
X032483Y008026D02*
X032904Y007746D01*
X032763Y007565D02*
X032904Y007425D01*
X032483Y007425D01*
X032483Y007565D02*
X032483Y007285D01*
X033483Y007285D02*
X033483Y007565D01*
X033483Y007425D02*
X033904Y007425D01*
X033763Y007565D01*
X033904Y007746D02*
X033483Y008026D01*
X033483Y008206D02*
X033623Y008346D01*
X033623Y008276D02*
X033623Y008486D01*
X033483Y008486D02*
X033904Y008486D01*
X033904Y008276D01*
X033834Y008206D01*
X033693Y008206D01*
X033623Y008276D01*
X033904Y008026D02*
X033483Y007746D01*
X034483Y007746D02*
X034483Y008026D01*
X034763Y007746D01*
X034834Y007746D01*
X034904Y007816D01*
X034904Y007956D01*
X034834Y008026D01*
X034834Y008206D02*
X034904Y008276D01*
X034904Y008486D01*
X034483Y008486D01*
X034483Y008276D01*
X034553Y008206D01*
X034834Y008206D01*
X035483Y008276D02*
X035553Y008206D01*
X035834Y008206D01*
X035904Y008276D01*
X035904Y008486D01*
X035483Y008486D01*
X035483Y008276D01*
X035483Y008026D02*
X035763Y007746D01*
X035834Y007746D01*
X035904Y007816D01*
X035904Y007956D01*
X035834Y008026D01*
X035483Y008026D02*
X035483Y007746D01*
X035483Y007565D02*
X035483Y007285D01*
X035483Y007425D02*
X035904Y007425D01*
X035763Y007565D01*
X035483Y007105D02*
X035904Y006825D01*
X035834Y006645D02*
X035763Y006645D01*
X035693Y006575D01*
X035693Y006435D01*
X035623Y006365D01*
X035553Y006365D01*
X035483Y006435D01*
X035483Y006575D01*
X035553Y006645D01*
X035834Y006645D02*
X035904Y006575D01*
X035904Y006435D01*
X035834Y006365D01*
X035834Y006184D02*
X035553Y006184D01*
X035483Y006114D01*
X035483Y005974D01*
X035553Y005904D01*
X035483Y005724D02*
X035483Y005444D01*
X035483Y005724D02*
X035904Y005724D01*
X035834Y005904D02*
X035904Y005974D01*
X035904Y006114D01*
X035834Y006184D01*
X034904Y006184D02*
X034904Y005974D01*
X034834Y005904D01*
X034553Y005904D01*
X034483Y005974D01*
X034483Y006184D01*
X034904Y006184D01*
X034834Y006365D02*
X034904Y006435D01*
X034904Y006575D01*
X034834Y006645D01*
X034763Y006645D01*
X034693Y006575D01*
X034693Y006435D01*
X034623Y006365D01*
X034553Y006365D01*
X034483Y006435D01*
X034483Y006575D01*
X034553Y006645D01*
X034904Y006825D02*
X034483Y007105D01*
X034553Y007285D02*
X034483Y007355D01*
X034483Y007495D01*
X034553Y007565D01*
X034834Y007285D01*
X034553Y007285D01*
X034553Y007565D02*
X034834Y007565D01*
X034904Y007495D01*
X034904Y007355D01*
X034834Y007285D01*
X034763Y005724D02*
X034904Y005584D01*
X034763Y005444D01*
X034483Y005444D01*
X034693Y005444D02*
X034693Y005724D01*
X034763Y005724D02*
X034483Y005724D01*
X029693Y005584D02*
X029693Y005514D01*
X028693Y005514D02*
X028693Y005584D01*
X006349Y005761D02*
X006279Y005691D01*
X006139Y005691D01*
X006069Y005761D01*
X006069Y005901D02*
X006209Y005971D01*
X006279Y005971D01*
X006349Y005901D01*
X006349Y005761D01*
X006069Y005901D02*
X006069Y006112D01*
X006349Y006112D01*
X005888Y006041D02*
X005818Y006112D01*
X005608Y006112D01*
X005608Y005691D01*
X005818Y005691D01*
X005888Y005761D01*
X005888Y006041D01*
X031334Y024179D02*
X031334Y025124D01*
X031925Y025124D01*
X032712Y025124D02*
X033145Y025124D01*
X033302Y024966D01*
X033302Y024336D01*
X033145Y024179D01*
X032712Y024179D01*
X031925Y024179D02*
X031334Y024179D01*
X031443Y030151D02*
X031193Y030401D01*
X030943Y030151D01*
X030443Y030151D01*
X030193Y030401D01*
X030193Y030901D01*
X030443Y031151D01*
X030943Y031151D01*
X031193Y030901D01*
X031443Y031151D01*
X031943Y031151D01*
X032193Y030901D01*
X032443Y031151D01*
X032943Y031151D01*
X033193Y030901D01*
X033443Y031151D01*
X033943Y031151D01*
X034193Y030901D01*
X034443Y031151D01*
X034943Y031151D01*
X035193Y030901D01*
X035443Y031151D01*
X035943Y031151D01*
X036193Y030901D01*
X036443Y031151D01*
X036943Y031151D01*
X037193Y030901D01*
X037443Y031151D01*
X037943Y031151D01*
X038193Y030901D01*
X038193Y030401D01*
X037943Y030151D01*
X037443Y030151D01*
X037193Y030401D01*
X036943Y030151D01*
X036443Y030151D01*
X036193Y030401D01*
X035943Y030151D01*
X035443Y030151D01*
X035193Y030401D01*
X034943Y030151D01*
X034443Y030151D01*
X034193Y030401D01*
X033943Y030151D01*
X033443Y030151D01*
X033193Y030401D01*
X032943Y030151D01*
X032443Y030151D01*
X032193Y030401D01*
X031943Y030151D01*
X031443Y030151D01*
X029193Y030401D02*
X029193Y030901D01*
X028943Y031151D01*
X028443Y031151D01*
X028193Y030901D01*
X027943Y031151D01*
X027443Y031151D01*
X027193Y030901D01*
X026943Y031151D01*
X026443Y031151D01*
X026193Y030901D01*
X025943Y031151D01*
X025443Y031151D01*
X025193Y030901D01*
X024943Y031151D01*
X024443Y031151D01*
X024193Y030901D01*
X023943Y031151D01*
X023443Y031151D01*
X023193Y030901D01*
X022943Y031151D01*
X022443Y031151D01*
X022193Y030901D01*
X021943Y031151D01*
X021443Y031151D01*
X021193Y030901D01*
X021193Y030401D01*
X021443Y030151D01*
X021943Y030151D01*
X022193Y030401D01*
X022443Y030151D01*
X022943Y030151D01*
X023193Y030401D01*
X023443Y030151D01*
X023943Y030151D01*
X024193Y030401D01*
X024443Y030151D01*
X024943Y030151D01*
X025193Y030401D01*
X025443Y030151D01*
X025943Y030151D01*
X026193Y030401D01*
X026443Y030151D01*
X026943Y030151D01*
X027193Y030401D01*
X027443Y030151D01*
X027943Y030151D01*
X028193Y030401D01*
X028443Y030151D01*
X028943Y030151D01*
X029193Y030401D01*
X028943Y032651D02*
X028443Y032651D01*
X028193Y032901D01*
X027943Y032651D01*
X027443Y032651D01*
X027193Y032901D01*
X026943Y032651D01*
X026443Y032651D01*
X026193Y032901D01*
X025943Y032651D01*
X025443Y032651D01*
X025193Y032901D01*
X024943Y032651D01*
X024443Y032651D01*
X024193Y032901D01*
X023943Y032651D01*
X023443Y032651D01*
X023193Y032901D01*
X022943Y032651D01*
X022443Y032651D01*
X022193Y032901D01*
X021943Y032651D01*
X021443Y032651D01*
X021193Y032901D01*
X021193Y033401D01*
X021443Y033651D01*
X021943Y033651D01*
X022193Y033401D01*
X022443Y033651D01*
X022943Y033651D01*
X023193Y033401D01*
X023443Y033651D01*
X023943Y033651D01*
X024193Y033401D01*
X024443Y033651D01*
X024943Y033651D01*
X025193Y033401D01*
X025443Y033651D01*
X025943Y033651D01*
X026193Y033401D01*
X026443Y033651D01*
X026943Y033651D01*
X027193Y033401D01*
X027443Y033651D01*
X027943Y033651D01*
X028193Y033401D01*
X028443Y033651D01*
X028943Y033651D01*
X029193Y033401D01*
X029193Y032901D01*
X028943Y032651D01*
X030193Y032901D02*
X030193Y033401D01*
X030443Y033651D01*
X030943Y033651D01*
X031193Y033401D01*
X031443Y033651D01*
X031943Y033651D01*
X032193Y033401D01*
X032443Y033651D01*
X032943Y033651D01*
X033193Y033401D01*
X033443Y033651D01*
X033943Y033651D01*
X034193Y033401D01*
X034443Y033651D01*
X034943Y033651D01*
X035193Y033401D01*
X035443Y033651D01*
X035943Y033651D01*
X036193Y033401D01*
X036443Y033651D01*
X036943Y033651D01*
X037193Y033401D01*
X037443Y033651D01*
X037943Y033651D01*
X038193Y033401D01*
X038193Y032901D01*
X037943Y032651D01*
X037443Y032651D01*
X037193Y032901D01*
X036943Y032651D01*
X036443Y032651D01*
X036193Y032901D01*
X035943Y032651D01*
X035443Y032651D01*
X035193Y032901D01*
X034943Y032651D01*
X034443Y032651D01*
X034193Y032901D01*
X033943Y032651D01*
X033443Y032651D01*
X033193Y032901D01*
X032943Y032651D01*
X032443Y032651D01*
X032193Y032901D01*
X031943Y032651D01*
X031443Y032651D01*
X031193Y032901D01*
X030943Y032651D01*
X030443Y032651D01*
X030193Y032901D01*
X032483Y033918D02*
X032553Y033848D01*
X032834Y033848D01*
X032553Y034128D01*
X032483Y034058D01*
X032483Y033918D01*
X032553Y034128D02*
X032834Y034128D01*
X032904Y034058D01*
X032904Y033918D01*
X032834Y033848D01*
X033483Y033848D02*
X033483Y034128D01*
X033483Y033988D02*
X033904Y033988D01*
X033763Y034128D01*
X033483Y034308D02*
X033483Y034588D01*
X033483Y034448D02*
X033904Y034448D01*
X033763Y034588D01*
X033763Y034768D02*
X033483Y034768D01*
X033693Y034768D02*
X033693Y035049D01*
X033763Y035049D02*
X033904Y034909D01*
X033763Y034768D01*
X033763Y035049D02*
X033483Y035049D01*
X032904Y034909D02*
X032763Y034768D01*
X032483Y034768D01*
X032483Y034588D02*
X032483Y034308D01*
X032483Y034448D02*
X032904Y034448D01*
X032763Y034588D01*
X032693Y034768D02*
X032693Y035049D01*
X032763Y035049D02*
X032483Y035049D01*
X032763Y035049D02*
X032904Y034909D01*
X031904Y034471D02*
X031763Y034331D01*
X031483Y034331D01*
X031553Y034151D02*
X031483Y034081D01*
X031483Y033941D01*
X031553Y033871D01*
X031834Y033871D01*
X031904Y033941D01*
X031904Y034081D01*
X031834Y034151D01*
X031763Y034151D01*
X031693Y034081D01*
X031693Y033871D01*
X031693Y034331D02*
X031693Y034611D01*
X031763Y034611D02*
X031904Y034471D01*
X031763Y034611D02*
X031483Y034611D01*
X030904Y034471D02*
X030763Y034331D01*
X030483Y034331D01*
X030553Y034151D02*
X030623Y034151D01*
X030693Y034081D01*
X030693Y033941D01*
X030623Y033871D01*
X030553Y033871D01*
X030483Y033941D01*
X030483Y034081D01*
X030553Y034151D01*
X030693Y034081D02*
X030763Y034151D01*
X030834Y034151D01*
X030904Y034081D01*
X030904Y033941D01*
X030834Y033871D01*
X030763Y033871D01*
X030693Y033941D01*
X030693Y034331D02*
X030693Y034611D01*
X030763Y034611D02*
X030904Y034471D01*
X030763Y034611D02*
X030483Y034611D01*
X029779Y034471D02*
X029638Y034331D01*
X029358Y034331D01*
X029358Y034151D02*
X029428Y034151D01*
X029709Y033871D01*
X029779Y033871D01*
X029779Y034151D01*
X029568Y034331D02*
X029568Y034611D01*
X029638Y034611D02*
X029779Y034471D01*
X029638Y034611D02*
X029358Y034611D01*
X028779Y034471D02*
X028638Y034331D01*
X028358Y034331D01*
X028428Y034151D02*
X028358Y034081D01*
X028358Y033941D01*
X028428Y033871D01*
X028498Y033871D01*
X028568Y033941D01*
X028568Y034151D01*
X028428Y034151D01*
X028568Y034151D02*
X028709Y034011D01*
X028779Y033871D01*
X028568Y034331D02*
X028568Y034611D01*
X028638Y034611D02*
X028779Y034471D01*
X028638Y034611D02*
X028358Y034611D01*
X027779Y034471D02*
X027638Y034331D01*
X027358Y034331D01*
X027428Y034151D02*
X027358Y034081D01*
X027358Y033941D01*
X027428Y033871D01*
X027568Y033871D01*
X027638Y033941D01*
X027638Y034011D01*
X027568Y034151D01*
X027779Y034151D01*
X027779Y033871D01*
X027568Y034331D02*
X027568Y034611D01*
X027638Y034611D02*
X027779Y034471D01*
X027638Y034611D02*
X027358Y034611D01*
X026779Y034471D02*
X026638Y034331D01*
X026358Y034331D01*
X026568Y034331D02*
X026568Y034611D01*
X026638Y034611D02*
X026779Y034471D01*
X026638Y034611D02*
X026358Y034611D01*
X026568Y034151D02*
X026568Y033871D01*
X026358Y033941D02*
X026779Y033941D01*
X026568Y034151D01*
X025779Y034081D02*
X025779Y033941D01*
X025709Y033871D01*
X025638Y033871D01*
X025568Y033941D01*
X025498Y033871D01*
X025428Y033871D01*
X025358Y033941D01*
X025358Y034081D01*
X025428Y034151D01*
X025358Y034331D02*
X025638Y034331D01*
X025779Y034471D01*
X025638Y034611D01*
X025358Y034611D01*
X025568Y034611D02*
X025568Y034331D01*
X025709Y034151D02*
X025779Y034081D01*
X025568Y034011D02*
X025568Y033941D01*
X024779Y033941D02*
X024779Y034081D01*
X024709Y034151D01*
X024638Y034331D02*
X024358Y034331D01*
X024358Y034151D02*
X024638Y033871D01*
X024709Y033871D01*
X024779Y033941D01*
X024638Y034331D02*
X024779Y034471D01*
X024638Y034611D01*
X024358Y034611D01*
X024568Y034611D02*
X024568Y034331D01*
X024358Y034151D02*
X024358Y033871D01*
X023779Y034011D02*
X023358Y034011D01*
X023358Y034151D02*
X023358Y033871D01*
X023638Y034151D02*
X023779Y034011D01*
X023638Y034331D02*
X023358Y034331D01*
X023568Y034331D02*
X023568Y034611D01*
X023638Y034611D02*
X023779Y034471D01*
X023638Y034331D01*
X023638Y034611D02*
X023358Y034611D01*
X021904Y034471D02*
X021763Y034331D01*
X021483Y034331D01*
X021553Y034151D02*
X021834Y033871D01*
X021553Y033871D01*
X021483Y033941D01*
X021483Y034081D01*
X021553Y034151D01*
X021834Y034151D01*
X021904Y034081D01*
X021904Y033941D01*
X021834Y033871D01*
X021693Y034331D02*
X021693Y034611D01*
X021763Y034611D02*
X021904Y034471D01*
X021763Y034611D02*
X021483Y034611D01*
X019904Y034643D02*
X019623Y034643D01*
X019483Y034784D01*
X019623Y034924D01*
X019904Y034924D01*
X019904Y034463D02*
X019904Y034323D01*
X019904Y034393D02*
X019483Y034393D01*
X019483Y034463D02*
X019483Y034323D01*
X019483Y034156D02*
X019904Y034156D01*
X019483Y033876D01*
X019904Y033876D01*
X019943Y033651D02*
X020193Y033401D01*
X020193Y032901D01*
X019943Y032651D01*
X019443Y032651D01*
X019193Y032901D01*
X018943Y032651D01*
X018443Y032651D01*
X018193Y032901D01*
X017943Y032651D01*
X017443Y032651D01*
X017193Y032901D01*
X016943Y032651D01*
X016443Y032651D01*
X016193Y032901D01*
X015943Y032651D01*
X015443Y032651D01*
X015193Y032901D01*
X014943Y032651D01*
X014443Y032651D01*
X014193Y032901D01*
X014193Y033401D01*
X014443Y033651D01*
X014943Y033651D01*
X015193Y033401D01*
X015443Y033651D01*
X015943Y033651D01*
X016193Y033401D01*
X016443Y033651D01*
X016943Y033651D01*
X017193Y033401D01*
X017443Y033651D01*
X017943Y033651D01*
X018193Y033401D01*
X018443Y033651D01*
X018943Y033651D01*
X019193Y033401D01*
X019443Y033651D01*
X019943Y033651D01*
X018904Y034168D02*
X018904Y034378D01*
X018483Y034378D01*
X018483Y034168D01*
X018553Y034098D01*
X018834Y034098D01*
X018904Y034168D01*
X018904Y034558D02*
X018483Y034558D01*
X018904Y034838D01*
X018483Y034838D01*
X018553Y035018D02*
X018693Y035018D01*
X018693Y035159D01*
X018553Y035299D02*
X018483Y035229D01*
X018483Y035089D01*
X018553Y035018D01*
X018834Y035018D02*
X018904Y035089D01*
X018904Y035229D01*
X018834Y035299D01*
X018553Y035299D01*
X017904Y035229D02*
X017834Y035299D01*
X017553Y035299D01*
X017483Y035229D01*
X017483Y035089D01*
X017553Y035018D01*
X017693Y035018D01*
X017693Y035159D01*
X017834Y035018D02*
X017904Y035089D01*
X017904Y035229D01*
X017904Y034838D02*
X017483Y034838D01*
X017483Y034558D02*
X017904Y034558D01*
X017904Y034378D02*
X017904Y034168D01*
X017834Y034098D01*
X017553Y034098D01*
X017483Y034168D01*
X017483Y034378D01*
X017904Y034378D01*
X017483Y034558D02*
X017904Y034838D01*
X016841Y034588D02*
X016631Y034588D01*
X016701Y034448D01*
X016701Y034378D01*
X016631Y034308D01*
X016491Y034308D01*
X016421Y034378D01*
X016421Y034518D01*
X016491Y034588D01*
X016631Y034768D02*
X016631Y035049D01*
X016771Y034909D02*
X016491Y034909D01*
X016841Y034588D02*
X016841Y034308D01*
X016841Y034128D02*
X016561Y034128D01*
X016421Y033988D01*
X016561Y033848D01*
X016841Y033848D01*
X015904Y033743D02*
X015623Y033743D01*
X015483Y033883D01*
X015623Y034023D01*
X015904Y034023D01*
X015834Y034203D02*
X015763Y034203D01*
X015693Y034273D01*
X015623Y034203D01*
X015553Y034203D01*
X015483Y034273D01*
X015483Y034413D01*
X015553Y034483D01*
X015553Y034643D02*
X015483Y034643D01*
X015483Y034713D01*
X015553Y034713D01*
X015553Y034643D01*
X015553Y034893D02*
X015483Y034964D01*
X015483Y035104D01*
X015553Y035174D01*
X015693Y035034D02*
X015693Y034964D01*
X015623Y034893D01*
X015553Y034893D01*
X015693Y034964D02*
X015763Y034893D01*
X015834Y034893D01*
X015904Y034964D01*
X015904Y035104D01*
X015834Y035174D01*
X015693Y035401D02*
X015193Y035401D01*
X014943Y035651D01*
X014943Y036151D01*
X015193Y036401D01*
X014943Y036651D01*
X014943Y037151D01*
X015193Y037401D01*
X014943Y037651D01*
X014943Y038151D01*
X015193Y038401D01*
X014943Y038651D01*
X014943Y039151D01*
X015193Y039401D01*
X015693Y039401D01*
X015943Y039151D01*
X015943Y038651D01*
X015693Y038401D01*
X015943Y038151D01*
X015943Y037651D01*
X015693Y037401D01*
X015943Y037151D01*
X015943Y036651D01*
X015693Y036401D01*
X015943Y036151D01*
X015943Y035651D01*
X015693Y035401D01*
X014904Y035174D02*
X014904Y034964D01*
X014834Y034893D01*
X014693Y034893D01*
X014623Y034964D01*
X014623Y035174D01*
X014483Y035174D02*
X014904Y035174D01*
X014623Y035034D02*
X014483Y034893D01*
X014553Y034713D02*
X014483Y034643D01*
X014483Y034503D01*
X014553Y034433D01*
X014623Y034433D01*
X014693Y034503D01*
X014693Y034643D01*
X014763Y034713D01*
X014834Y034713D01*
X014904Y034643D01*
X014904Y034503D01*
X014834Y034433D01*
X014904Y034253D02*
X014904Y033973D01*
X014904Y034113D02*
X014483Y034113D01*
X015693Y034273D02*
X015693Y034343D01*
X015834Y034203D02*
X015904Y034273D01*
X015904Y034413D01*
X015834Y034483D01*
X011093Y035004D02*
X011093Y032424D01*
X009793Y032424D01*
X009793Y035004D01*
X011093Y035004D01*
X008443Y034964D02*
X008443Y034464D01*
X008193Y034214D01*
X008443Y033964D01*
X008443Y033464D01*
X008193Y033214D01*
X008443Y032964D01*
X008443Y032464D01*
X008193Y032214D01*
X007693Y032214D01*
X007443Y032464D01*
X007443Y032964D01*
X007693Y033214D01*
X007443Y033464D01*
X007443Y033964D01*
X007693Y034214D01*
X007443Y034464D01*
X007443Y034964D01*
X007693Y035214D01*
X008193Y035214D01*
X008443Y034964D01*
X007178Y034924D02*
X007178Y034644D01*
X007038Y034504D01*
X006898Y034644D01*
X006898Y034924D01*
X006648Y034924D02*
X006437Y034714D01*
X006718Y034714D01*
X006648Y034504D02*
X006648Y034924D01*
X006257Y034854D02*
X006187Y034924D01*
X006047Y034924D01*
X005977Y034854D01*
X005797Y034714D02*
X005517Y034714D01*
X005657Y034854D02*
X005657Y034574D01*
X005977Y034504D02*
X006257Y034784D01*
X006257Y034854D01*
X006257Y034504D02*
X005977Y034504D01*
X005977Y033924D02*
X006117Y033784D01*
X006257Y033924D01*
X006257Y033504D01*
X006437Y033504D02*
X006437Y033924D01*
X006718Y033924D01*
X006898Y033854D02*
X006968Y033924D01*
X007108Y033924D01*
X007178Y033854D01*
X006898Y033854D02*
X006898Y033574D01*
X006968Y033504D01*
X007108Y033504D01*
X007178Y033574D01*
X006578Y033714D02*
X006437Y033714D01*
X005977Y033504D02*
X005977Y033924D01*
X006117Y032924D02*
X006117Y032504D01*
X005977Y032504D02*
X006257Y032504D01*
X006437Y032574D02*
X006507Y032504D01*
X006648Y032504D01*
X006718Y032574D01*
X006718Y032714D01*
X006648Y032784D01*
X006578Y032784D01*
X006437Y032714D01*
X006437Y032924D01*
X006718Y032924D01*
X006898Y032924D02*
X006898Y032644D01*
X007038Y032504D01*
X007178Y032644D01*
X007178Y032924D01*
X006117Y032924D02*
X005977Y032784D01*
X005797Y032714D02*
X005517Y032714D01*
X005657Y032854D02*
X005657Y032574D01*
X008834Y031216D02*
X008834Y030586D01*
X008991Y030429D01*
X009425Y030429D01*
X010212Y030429D02*
X010803Y030429D01*
X010803Y031374D01*
X010212Y031374D01*
X009425Y031374D02*
X008991Y031374D01*
X008834Y031216D01*
X014193Y030901D02*
X014193Y030401D01*
X014443Y030151D01*
X014943Y030151D01*
X015193Y030401D01*
X015443Y030151D01*
X015943Y030151D01*
X016193Y030401D01*
X016443Y030151D01*
X016943Y030151D01*
X017193Y030401D01*
X017443Y030151D01*
X017943Y030151D01*
X018193Y030401D01*
X018443Y030151D01*
X018943Y030151D01*
X019193Y030401D01*
X019443Y030151D01*
X019943Y030151D01*
X020193Y030401D01*
X020193Y030901D01*
X019943Y031151D01*
X019443Y031151D01*
X019193Y030901D01*
X018943Y031151D01*
X018443Y031151D01*
X018193Y030901D01*
X017943Y031151D01*
X017443Y031151D01*
X017193Y030901D01*
X016943Y031151D01*
X016443Y031151D01*
X016193Y030901D01*
X015943Y031151D01*
X015443Y031151D01*
X015193Y030901D01*
X014943Y031151D01*
X014443Y031151D01*
X014193Y030901D01*
X005899Y035192D02*
X005624Y035192D01*
X005899Y035192D02*
X005899Y036019D01*
X003773Y035192D02*
X001687Y035192D01*
X001687Y038735D01*
X005899Y038735D01*
X005899Y037909D01*
X007471Y038007D02*
X007471Y037574D01*
X007628Y037417D01*
X008258Y037417D01*
X008416Y037574D01*
X008416Y038007D01*
X008416Y038795D02*
X008416Y039385D01*
X007471Y039385D01*
X007471Y038795D01*
X027676Y037636D02*
X027678Y037651D01*
X027684Y037664D01*
X027693Y037676D01*
X027704Y037685D01*
X027718Y037691D01*
X027733Y037693D01*
X027748Y037691D01*
X027761Y037685D01*
X027773Y037676D01*
X027782Y037665D01*
X027788Y037651D01*
X027790Y037636D01*
X027788Y037621D01*
X027782Y037608D01*
X027773Y037596D01*
X027762Y037587D01*
X027748Y037581D01*
X027733Y037579D01*
X027718Y037581D01*
X027705Y037587D01*
X027693Y037596D01*
X027684Y037607D01*
X027678Y037621D01*
X027676Y037636D01*
X034483Y035049D02*
X034763Y035049D01*
X034904Y034909D01*
X034763Y034768D01*
X034483Y034768D01*
X034483Y034588D02*
X034483Y034308D01*
X034483Y034448D02*
X034904Y034448D01*
X034763Y034588D01*
X034693Y034768D02*
X034693Y035049D01*
X035483Y035049D02*
X035763Y035049D01*
X035904Y034909D01*
X035763Y034768D01*
X035483Y034768D01*
X035483Y034588D02*
X035483Y034308D01*
X035483Y034448D02*
X035904Y034448D01*
X035763Y034588D01*
X035693Y034768D02*
X035693Y035049D01*
X036483Y035049D02*
X036763Y035049D01*
X036904Y034909D01*
X036763Y034768D01*
X036483Y034768D01*
X036483Y034588D02*
X036483Y034308D01*
X036483Y034448D02*
X036904Y034448D01*
X036763Y034588D01*
X036693Y034768D02*
X036693Y035049D01*
X037483Y035049D02*
X037763Y035049D01*
X037904Y034909D01*
X037763Y034768D01*
X037483Y034768D01*
X037483Y034588D02*
X037483Y034308D01*
X037483Y034448D02*
X037904Y034448D01*
X037763Y034588D01*
X037693Y034768D02*
X037693Y035049D01*
X037693Y034128D02*
X037763Y033988D01*
X037763Y033918D01*
X037693Y033848D01*
X037553Y033848D01*
X037483Y033918D01*
X037483Y034058D01*
X037553Y034128D01*
X037693Y034128D02*
X037904Y034128D01*
X037904Y033848D01*
X036904Y033918D02*
X036693Y034128D01*
X036693Y033848D01*
X036483Y033918D02*
X036904Y033918D01*
X035904Y033918D02*
X035834Y033848D01*
X035763Y033848D01*
X035693Y033918D01*
X035623Y033848D01*
X035553Y033848D01*
X035483Y033918D01*
X035483Y034058D01*
X035553Y034128D01*
X035693Y033988D02*
X035693Y033918D01*
X035904Y033918D02*
X035904Y034058D01*
X035834Y034128D01*
X034904Y034058D02*
X034834Y034128D01*
X034904Y034058D02*
X034904Y033918D01*
X034834Y033848D01*
X034763Y033848D01*
X034483Y034128D01*
X034483Y033848D01*
D13*
X030068Y035526D02*
X027943Y035526D01*
X027943Y036276D01*
X030068Y036276D01*
X030068Y035526D01*
X026818Y034776D02*
X024193Y034776D01*
X024193Y037151D01*
X026818Y037151D01*
X026818Y034776D01*
X023818Y034901D02*
X022568Y034901D01*
X022568Y035401D01*
X023818Y035401D01*
X023818Y034901D01*
X027513Y037316D02*
X027513Y038736D01*
X029373Y038736D02*
X029373Y037316D01*
X029568Y037401D02*
X029568Y038026D01*
X030818Y038026D01*
X030818Y037401D01*
X029568Y037401D01*
X027367Y037658D02*
X027367Y037894D01*
X026895Y037894D02*
X026895Y037658D01*
X025068Y037651D02*
X024443Y037651D01*
X024443Y038901D01*
X025068Y038901D01*
X025068Y037651D01*
X024992Y038158D02*
X024992Y038394D01*
X024520Y038394D02*
X024520Y038158D01*
X030013Y038227D02*
X030249Y038227D01*
X030249Y038700D02*
X030013Y038700D01*
X045633Y029536D02*
X045853Y029536D01*
X045633Y029536D02*
X045633Y029216D01*
X046533Y029536D02*
X046753Y029536D01*
X046753Y029216D01*
X050133Y029216D02*
X050133Y029536D01*
X050353Y029536D01*
X051033Y029536D02*
X051253Y029536D01*
X051253Y029216D01*
X054633Y029216D02*
X054633Y029536D01*
X054853Y029536D01*
X055533Y029536D02*
X055753Y029536D01*
X055753Y029216D01*
X059133Y029216D02*
X059133Y029536D01*
X059353Y029536D01*
X060033Y029536D02*
X060253Y029536D01*
X060253Y029216D01*
X059554Y027957D02*
X059554Y027721D01*
X059082Y027721D02*
X059082Y027957D01*
X055054Y027957D02*
X055054Y027721D01*
X054582Y027721D02*
X054582Y027957D01*
X050554Y027957D02*
X050554Y027721D01*
X050082Y027721D02*
X050082Y027957D01*
X046054Y027957D02*
X046054Y027721D01*
X045582Y027721D02*
X045582Y027957D01*
X044693Y027901D02*
X044443Y028151D01*
X042943Y028151D01*
X042693Y027901D01*
X042693Y027401D01*
X042943Y027151D01*
X042693Y026901D01*
X042693Y026401D01*
X042943Y026151D01*
X042693Y025901D01*
X042693Y025401D01*
X042943Y025151D01*
X042693Y024901D01*
X042693Y024401D01*
X042943Y024151D01*
X042693Y023901D01*
X042693Y023401D01*
X042943Y023151D01*
X042693Y022901D01*
X042693Y022401D01*
X042943Y022151D01*
X042693Y021901D01*
X042693Y021401D01*
X042943Y021151D01*
X042693Y020901D01*
X042693Y020401D01*
X042943Y020151D01*
X042693Y019901D01*
X042693Y019401D01*
X042943Y019151D01*
X042693Y018901D01*
X042693Y018401D01*
X042943Y018151D01*
X042693Y017901D01*
X042693Y017401D01*
X042943Y017151D01*
X042693Y016901D01*
X042693Y016401D01*
X042943Y016151D01*
X042693Y015901D01*
X042693Y015401D01*
X042943Y015151D01*
X042693Y014901D01*
X042693Y014401D01*
X042943Y014151D01*
X042693Y013901D01*
X042693Y013401D01*
X042943Y013151D01*
X042693Y012901D01*
X042693Y012401D01*
X042943Y012151D01*
X044443Y012151D01*
X044693Y012401D01*
X044693Y012901D01*
X044443Y013151D01*
X044693Y013401D01*
X044693Y013901D01*
X044443Y014151D01*
X044693Y014401D01*
X044693Y014901D01*
X044443Y015151D01*
X044693Y015401D01*
X044693Y015901D01*
X044443Y016151D01*
X044693Y016401D01*
X044693Y016901D01*
X044443Y017151D01*
X044693Y017401D01*
X044693Y017901D01*
X044443Y018151D01*
X044693Y018401D01*
X044693Y018901D01*
X044443Y019151D01*
X044693Y019401D01*
X044693Y019901D01*
X044443Y020151D01*
X042943Y020151D01*
X044443Y020151D01*
X044693Y020401D01*
X044693Y020901D01*
X044443Y021151D01*
X044693Y021401D01*
X044693Y021901D01*
X044443Y022151D01*
X044693Y022401D01*
X044693Y022901D01*
X044443Y023151D01*
X044693Y023401D01*
X044693Y023901D01*
X044443Y024151D01*
X044693Y024401D01*
X044693Y024901D01*
X044443Y025151D01*
X044693Y025401D01*
X044693Y025901D01*
X044443Y026151D01*
X044693Y026401D01*
X044693Y026901D01*
X044443Y027151D01*
X044693Y027401D01*
X044693Y027901D01*
X040193Y027901D02*
X040193Y027401D01*
X039943Y027151D01*
X040193Y026901D01*
X040193Y026401D01*
X039943Y026151D01*
X040193Y025901D01*
X040193Y025401D01*
X039943Y025151D01*
X040193Y024901D01*
X040193Y024401D01*
X039943Y024151D01*
X040193Y023901D01*
X040193Y023401D01*
X039943Y023151D01*
X040193Y022901D01*
X040193Y022401D01*
X039943Y022151D01*
X040193Y021901D01*
X040193Y021401D01*
X039943Y021151D01*
X040193Y020901D01*
X040193Y020401D01*
X039943Y020151D01*
X038443Y020151D01*
X038193Y020401D01*
X038193Y020901D01*
X038443Y021151D01*
X038193Y021401D01*
X038193Y021901D01*
X038443Y022151D01*
X038193Y022401D01*
X038193Y022901D01*
X038443Y023151D01*
X038193Y023401D01*
X038193Y023901D01*
X038443Y024151D01*
X038193Y024401D01*
X038193Y024901D01*
X038443Y025151D01*
X038193Y025401D01*
X038193Y025901D01*
X038443Y026151D01*
X038193Y026401D01*
X038193Y026901D01*
X038443Y027151D01*
X038193Y027401D01*
X038193Y027901D01*
X038443Y028151D01*
X038193Y028401D01*
X038193Y028901D01*
X038443Y029151D01*
X039943Y029151D01*
X040193Y028901D01*
X040193Y028401D01*
X039943Y028151D01*
X040193Y027901D01*
X036811Y027665D02*
X036575Y027665D01*
X036575Y028137D02*
X036811Y028137D01*
X033311Y025762D02*
X033075Y025762D01*
X033075Y025290D02*
X033311Y025290D01*
X034169Y024516D02*
X035967Y024516D01*
X035967Y022536D01*
X034169Y022536D01*
X034169Y024516D01*
X034408Y024166D02*
X034410Y024192D01*
X034416Y024218D01*
X034425Y024242D01*
X034438Y024265D01*
X034454Y024286D01*
X034473Y024304D01*
X034494Y024320D01*
X034518Y024332D01*
X034542Y024340D01*
X034568Y024345D01*
X034595Y024346D01*
X034621Y024343D01*
X034646Y024336D01*
X034670Y024326D01*
X034693Y024312D01*
X034713Y024296D01*
X034730Y024276D01*
X034745Y024254D01*
X034756Y024230D01*
X034764Y024205D01*
X034768Y024179D01*
X034768Y024153D01*
X034764Y024127D01*
X034756Y024102D01*
X034745Y024078D01*
X034730Y024056D01*
X034713Y024036D01*
X034693Y024020D01*
X034670Y024006D01*
X034646Y023996D01*
X034621Y023989D01*
X034595Y023986D01*
X034568Y023987D01*
X034542Y023992D01*
X034518Y024000D01*
X034494Y024012D01*
X034473Y024028D01*
X034454Y024046D01*
X034438Y024067D01*
X034425Y024090D01*
X034416Y024114D01*
X034410Y024140D01*
X034408Y024166D01*
X033193Y024026D02*
X033193Y023526D01*
X031943Y023526D01*
X031943Y024026D01*
X033193Y024026D01*
X033193Y022901D02*
X031943Y022901D01*
X031943Y022401D01*
X033193Y022401D01*
X033193Y022901D01*
X038193Y019901D02*
X038193Y019401D01*
X038443Y019151D01*
X038193Y018901D01*
X038193Y018401D01*
X038443Y018151D01*
X038193Y017901D01*
X038193Y017401D01*
X038443Y017151D01*
X038193Y016901D01*
X038193Y016401D01*
X038443Y016151D01*
X038193Y015901D01*
X038193Y015401D01*
X038443Y015151D01*
X038193Y014901D01*
X038193Y014401D01*
X038443Y014151D01*
X038193Y013901D01*
X038193Y013401D01*
X038443Y013151D01*
X038193Y012901D01*
X038193Y012401D01*
X038443Y012151D01*
X038193Y011901D01*
X038193Y011401D01*
X038443Y011151D01*
X039943Y011151D01*
X040193Y011401D01*
X040193Y011901D01*
X039943Y012151D01*
X040193Y012401D01*
X040193Y012901D01*
X039943Y013151D01*
X040193Y013401D01*
X040193Y013901D01*
X039943Y014151D01*
X040193Y014401D01*
X040193Y014901D01*
X039943Y015151D01*
X040193Y015401D01*
X040193Y015901D01*
X039943Y016151D01*
X040193Y016401D01*
X040193Y016901D01*
X039943Y017151D01*
X040193Y017401D01*
X040193Y017901D01*
X039943Y018151D01*
X040193Y018401D01*
X040193Y018901D01*
X039943Y019151D01*
X040193Y019401D01*
X040193Y019901D01*
X039943Y020151D01*
X038443Y020151D01*
X038193Y019901D01*
X031818Y017401D02*
X030568Y017401D01*
X030568Y016901D01*
X031818Y016901D01*
X031818Y017401D01*
X026568Y016901D02*
X026568Y016401D01*
X026568Y015901D01*
X025318Y015901D01*
X025318Y016401D01*
X025318Y016901D01*
X026568Y016901D01*
X026568Y016401D02*
X025318Y016401D01*
X025318Y015401D02*
X025318Y014901D01*
X025318Y014401D01*
X026568Y014401D01*
X026568Y014901D01*
X025318Y014901D01*
X026568Y014901D02*
X026568Y015401D01*
X025318Y015401D01*
X005443Y009151D02*
X005193Y009401D01*
X003693Y009401D01*
X003443Y009151D01*
X003443Y008651D01*
X003693Y008401D01*
X003443Y008151D01*
X003443Y007651D01*
X003693Y007401D01*
X003443Y007151D01*
X003443Y006651D01*
X003693Y006401D01*
X003443Y006151D01*
X003443Y005651D01*
X003693Y005401D01*
X003443Y005151D01*
X003443Y004651D01*
X003693Y004401D01*
X003443Y004151D01*
X003443Y003651D01*
X003693Y003401D01*
X003443Y003151D01*
X003443Y002651D01*
X003693Y002401D01*
X003443Y002151D01*
X003443Y001651D01*
X003693Y001401D01*
X003443Y001151D01*
X003443Y000651D01*
X003693Y000401D01*
X005193Y000401D01*
X005443Y000651D01*
X005443Y001151D01*
X005193Y001401D01*
X005443Y001651D01*
X005443Y002151D01*
X005193Y002401D01*
X005443Y002651D01*
X005443Y003151D01*
X005193Y003401D01*
X005443Y003651D01*
X005443Y004151D01*
X005193Y004401D01*
X005443Y004651D01*
X005443Y005151D01*
X005193Y005401D01*
X005443Y005651D01*
X005443Y006151D01*
X005193Y006401D01*
X005443Y006651D01*
X005443Y007151D01*
X005193Y007401D01*
X005443Y007651D01*
X005443Y008151D01*
X005193Y008401D01*
X005443Y008651D01*
X005443Y009151D01*
X046582Y023221D02*
X046582Y023457D01*
X047054Y023457D02*
X047054Y023221D01*
X051082Y023221D02*
X051082Y023457D01*
X051554Y023457D02*
X051554Y023221D01*
X055582Y023221D02*
X055582Y023457D01*
X056054Y023457D02*
X056054Y023221D01*
X060082Y023221D02*
X060082Y023457D01*
X060554Y023457D02*
X060554Y023221D01*
X060133Y024716D02*
X060133Y025036D01*
X060353Y025036D01*
X061033Y025036D02*
X061253Y025036D01*
X061253Y024716D01*
X056753Y024716D02*
X056753Y025036D01*
X056533Y025036D01*
X055853Y025036D02*
X055633Y025036D01*
X055633Y024716D01*
X052253Y024716D02*
X052253Y025036D01*
X052033Y025036D01*
X051353Y025036D02*
X051133Y025036D01*
X051133Y024716D01*
X047753Y024716D02*
X047753Y025036D01*
X047533Y025036D01*
X046853Y025036D02*
X046633Y025036D01*
X046633Y024716D01*
X066582Y027721D02*
X066582Y027957D01*
X067054Y027957D02*
X067054Y027721D01*
X071082Y027721D02*
X071082Y027957D01*
X071554Y027957D02*
X071554Y027721D01*
X075582Y027721D02*
X075582Y027957D01*
X076054Y027957D02*
X076054Y027721D01*
X080082Y027721D02*
X080082Y027957D01*
X080554Y027957D02*
X080554Y027721D01*
X080133Y029216D02*
X080133Y029536D01*
X080353Y029536D01*
X081033Y029536D02*
X081253Y029536D01*
X081253Y029216D01*
X076753Y029216D02*
X076753Y029536D01*
X076533Y029536D01*
X075853Y029536D02*
X075633Y029536D01*
X075633Y029216D01*
X072253Y029216D02*
X072253Y029536D01*
X072033Y029536D01*
X071353Y029536D02*
X071133Y029536D01*
X071133Y029216D01*
X067753Y029216D02*
X067753Y029536D01*
X067533Y029536D01*
X066853Y029536D02*
X066633Y029536D01*
X066633Y029216D01*
X067633Y025036D02*
X067853Y025036D01*
X067633Y025036D02*
X067633Y024716D01*
X068533Y025036D02*
X068753Y025036D01*
X068753Y024716D01*
X072133Y024716D02*
X072133Y025036D01*
X072353Y025036D01*
X073033Y025036D02*
X073253Y025036D01*
X073253Y024716D01*
X076633Y024716D02*
X076633Y025036D01*
X076853Y025036D01*
X077533Y025036D02*
X077753Y025036D01*
X077753Y024716D01*
X081133Y024716D02*
X081133Y025036D01*
X081353Y025036D01*
X082033Y025036D02*
X082253Y025036D01*
X082253Y024716D01*
X081554Y023457D02*
X081554Y023221D01*
X081082Y023221D02*
X081082Y023457D01*
X077054Y023457D02*
X077054Y023221D01*
X076582Y023221D02*
X076582Y023457D01*
X072554Y023457D02*
X072554Y023221D01*
X072082Y023221D02*
X072082Y023457D01*
X068054Y023457D02*
X068054Y023221D01*
X067582Y023221D02*
X067582Y023457D01*
X095582Y027721D02*
X095582Y027957D01*
X096054Y027957D02*
X096054Y027721D01*
X100082Y027721D02*
X100082Y027957D01*
X100554Y027957D02*
X100554Y027721D01*
X104582Y027721D02*
X104582Y027957D01*
X105054Y027957D02*
X105054Y027721D01*
X109082Y027721D02*
X109082Y027957D01*
X109554Y027957D02*
X109554Y027721D01*
X109133Y029216D02*
X109133Y029536D01*
X109353Y029536D01*
X110033Y029536D02*
X110253Y029536D01*
X110253Y029216D01*
X105753Y029216D02*
X105753Y029536D01*
X105533Y029536D01*
X104853Y029536D02*
X104633Y029536D01*
X104633Y029216D01*
X101253Y029216D02*
X101253Y029536D01*
X101033Y029536D01*
X100353Y029536D02*
X100133Y029536D01*
X100133Y029216D01*
X096753Y029216D02*
X096753Y029536D01*
X096533Y029536D01*
X095853Y029536D02*
X095633Y029536D01*
X095633Y029216D01*
X096633Y025036D02*
X096853Y025036D01*
X096633Y025036D02*
X096633Y024716D01*
X097533Y025036D02*
X097753Y025036D01*
X097753Y024716D01*
X101133Y024716D02*
X101133Y025036D01*
X101353Y025036D01*
X102033Y025036D02*
X102253Y025036D01*
X102253Y024716D01*
X105633Y024716D02*
X105633Y025036D01*
X105853Y025036D01*
X106533Y025036D02*
X106753Y025036D01*
X106753Y024716D01*
X110133Y024716D02*
X110133Y025036D01*
X110353Y025036D01*
X111033Y025036D02*
X111253Y025036D01*
X111253Y024716D01*
X110554Y023457D02*
X110554Y023221D01*
X110082Y023221D02*
X110082Y023457D01*
X106054Y023457D02*
X106054Y023221D01*
X105582Y023221D02*
X105582Y023457D01*
X101554Y023457D02*
X101554Y023221D01*
X101082Y023221D02*
X101082Y023457D01*
X097054Y023457D02*
X097054Y023221D01*
X096582Y023221D02*
X096582Y023457D01*
X116582Y027721D02*
X116582Y027957D01*
X117054Y027957D02*
X117054Y027721D01*
X121082Y027721D02*
X121082Y027957D01*
X121554Y027957D02*
X121554Y027721D01*
X125582Y027721D02*
X125582Y027957D01*
X126054Y027957D02*
X126054Y027721D01*
X130082Y027721D02*
X130082Y027957D01*
X130554Y027957D02*
X130554Y027721D01*
X130133Y029216D02*
X130133Y029536D01*
X130353Y029536D01*
X131033Y029536D02*
X131253Y029536D01*
X131253Y029216D01*
X126753Y029216D02*
X126753Y029536D01*
X126533Y029536D01*
X125853Y029536D02*
X125633Y029536D01*
X125633Y029216D01*
X122253Y029216D02*
X122253Y029536D01*
X122033Y029536D01*
X121353Y029536D02*
X121133Y029536D01*
X121133Y029216D01*
X117753Y029216D02*
X117753Y029536D01*
X117533Y029536D01*
X116853Y029536D02*
X116633Y029536D01*
X116633Y029216D01*
X117633Y025036D02*
X117853Y025036D01*
X117633Y025036D02*
X117633Y024716D01*
X118533Y025036D02*
X118753Y025036D01*
X118753Y024716D01*
X118054Y023457D02*
X118054Y023221D01*
X117582Y023221D02*
X117582Y023457D01*
X122082Y023457D02*
X122082Y023221D01*
X122554Y023221D02*
X122554Y023457D01*
X122133Y024716D02*
X122133Y025036D01*
X122353Y025036D01*
X123033Y025036D02*
X123253Y025036D01*
X123253Y024716D01*
X126633Y024716D02*
X126633Y025036D01*
X126853Y025036D01*
X127533Y025036D02*
X127753Y025036D01*
X127753Y024716D01*
X127054Y023457D02*
X127054Y023221D01*
X126582Y023221D02*
X126582Y023457D01*
X131082Y023457D02*
X131082Y023221D01*
X131554Y023221D02*
X131554Y023457D01*
X131133Y024716D02*
X131133Y025036D01*
X131353Y025036D01*
X132033Y025036D02*
X132253Y025036D01*
X132253Y024716D01*
X082874Y035352D02*
X082638Y035352D01*
X082638Y035825D02*
X082874Y035825D01*
D14*
X035877Y024426D02*
X034259Y024426D01*
X034259Y022626D01*
X035877Y022626D01*
X035877Y024426D01*
D15*
X047307Y027281D02*
X047307Y031021D01*
X049079Y031021D01*
X049079Y029643D01*
X049571Y029643D01*
X049571Y028659D01*
X049079Y028659D01*
X049079Y027281D01*
X047307Y027281D01*
X048307Y026521D02*
X050079Y026521D01*
X050079Y025143D01*
X050571Y025143D01*
X050571Y024159D01*
X050079Y024159D01*
X050079Y022781D01*
X048307Y022781D01*
X048307Y026521D01*
X051807Y027281D02*
X051807Y031021D01*
X053579Y031021D01*
X053579Y029643D01*
X054071Y029643D01*
X054071Y028659D01*
X053579Y028659D01*
X053579Y027281D01*
X051807Y027281D01*
X052807Y026521D02*
X054579Y026521D01*
X054579Y025143D01*
X055071Y025143D01*
X055071Y024159D01*
X054579Y024159D01*
X054579Y022781D01*
X052807Y022781D01*
X052807Y026521D01*
X056307Y027281D02*
X056307Y031021D01*
X058079Y031021D01*
X058079Y029643D01*
X058571Y029643D01*
X058571Y028659D01*
X058079Y028659D01*
X058079Y027281D01*
X056307Y027281D01*
X057307Y026521D02*
X059079Y026521D01*
X059079Y025143D01*
X059571Y025143D01*
X059571Y024159D01*
X059079Y024159D01*
X059079Y022781D01*
X057307Y022781D01*
X057307Y026521D01*
X060807Y027281D02*
X060807Y031021D01*
X062579Y031021D01*
X062579Y029643D01*
X063071Y029643D01*
X063071Y028659D01*
X062579Y028659D01*
X062579Y027281D01*
X060807Y027281D01*
X061807Y026521D02*
X063579Y026521D01*
X063579Y025143D01*
X064071Y025143D01*
X064071Y024159D01*
X063579Y024159D01*
X063579Y022781D01*
X061807Y022781D01*
X061807Y026521D01*
X063579Y025143D02*
X063579Y024159D01*
X059079Y024159D02*
X059079Y025143D01*
X054579Y025143D02*
X054579Y024159D01*
X050079Y024159D02*
X050079Y025143D01*
X049079Y028659D02*
X049079Y029643D01*
X053579Y029643D02*
X053579Y028659D01*
X058079Y028659D02*
X058079Y029643D01*
X062579Y029643D02*
X062579Y028659D01*
X068307Y027281D02*
X068307Y031021D01*
X070079Y031021D01*
X070079Y029643D01*
X070571Y029643D01*
X070571Y028659D01*
X070079Y028659D01*
X070079Y027281D01*
X068307Y027281D01*
X069307Y026521D02*
X071079Y026521D01*
X071079Y025143D01*
X071571Y025143D01*
X071571Y024159D01*
X071079Y024159D01*
X071079Y022781D01*
X069307Y022781D01*
X069307Y026521D01*
X072807Y027281D02*
X072807Y031021D01*
X074579Y031021D01*
X074579Y029643D01*
X075071Y029643D01*
X075071Y028659D01*
X074579Y028659D01*
X074579Y027281D01*
X072807Y027281D01*
X073807Y026521D02*
X075579Y026521D01*
X075579Y025143D01*
X076071Y025143D01*
X076071Y024159D01*
X075579Y024159D01*
X075579Y022781D01*
X073807Y022781D01*
X073807Y026521D01*
X077307Y027281D02*
X077307Y031021D01*
X079079Y031021D01*
X079079Y029643D01*
X079571Y029643D01*
X079571Y028659D01*
X079079Y028659D01*
X079079Y027281D01*
X077307Y027281D01*
X078307Y026521D02*
X080079Y026521D01*
X080079Y025143D01*
X080571Y025143D01*
X080571Y024159D01*
X080079Y024159D01*
X080079Y022781D01*
X078307Y022781D01*
X078307Y026521D01*
X081807Y027281D02*
X081807Y031021D01*
X083579Y031021D01*
X083579Y029643D01*
X084071Y029643D01*
X084071Y028659D01*
X083579Y028659D01*
X083579Y027281D01*
X081807Y027281D01*
X082807Y026521D02*
X084579Y026521D01*
X084579Y025143D01*
X085071Y025143D01*
X085071Y024159D01*
X084579Y024159D01*
X084579Y022781D01*
X082807Y022781D01*
X082807Y026521D01*
X084579Y025143D02*
X084579Y024159D01*
X080079Y024159D02*
X080079Y025143D01*
X075579Y025143D02*
X075579Y024159D01*
X071079Y024159D02*
X071079Y025143D01*
X070079Y028659D02*
X070079Y029643D01*
X074579Y029643D02*
X074579Y028659D01*
X079079Y028659D02*
X079079Y029643D01*
X083579Y029643D02*
X083579Y028659D01*
X097307Y027281D02*
X097307Y031021D01*
X099079Y031021D01*
X099079Y029643D01*
X099571Y029643D01*
X099571Y028659D01*
X099079Y028659D01*
X099079Y027281D01*
X097307Y027281D01*
X098307Y026521D02*
X100079Y026521D01*
X100079Y025143D01*
X100571Y025143D01*
X100571Y024159D01*
X100079Y024159D01*
X100079Y022781D01*
X098307Y022781D01*
X098307Y026521D01*
X101807Y027281D02*
X101807Y031021D01*
X103579Y031021D01*
X103579Y029643D01*
X104071Y029643D01*
X104071Y028659D01*
X103579Y028659D01*
X103579Y027281D01*
X101807Y027281D01*
X102807Y026521D02*
X104579Y026521D01*
X104579Y025143D01*
X105071Y025143D01*
X105071Y024159D01*
X104579Y024159D01*
X104579Y022781D01*
X102807Y022781D01*
X102807Y026521D01*
X106307Y027281D02*
X106307Y031021D01*
X108079Y031021D01*
X108079Y029643D01*
X108571Y029643D01*
X108571Y028659D01*
X108079Y028659D01*
X108079Y027281D01*
X106307Y027281D01*
X107307Y026521D02*
X109079Y026521D01*
X109079Y025143D01*
X109571Y025143D01*
X109571Y024159D01*
X109079Y024159D01*
X109079Y022781D01*
X107307Y022781D01*
X107307Y026521D01*
X110807Y027281D02*
X110807Y031021D01*
X112579Y031021D01*
X112579Y029643D01*
X113071Y029643D01*
X113071Y028659D01*
X112579Y028659D01*
X112579Y027281D01*
X110807Y027281D01*
X111807Y026521D02*
X113579Y026521D01*
X113579Y025143D01*
X114071Y025143D01*
X114071Y024159D01*
X113579Y024159D01*
X113579Y022781D01*
X111807Y022781D01*
X111807Y026521D01*
X113579Y025143D02*
X113579Y024159D01*
X109079Y024159D02*
X109079Y025143D01*
X104579Y025143D02*
X104579Y024159D01*
X100079Y024159D02*
X100079Y025143D01*
X099079Y028659D02*
X099079Y029643D01*
X103579Y029643D02*
X103579Y028659D01*
X108079Y028659D02*
X108079Y029643D01*
X112579Y029643D02*
X112579Y028659D01*
X118307Y027281D02*
X118307Y031021D01*
X120079Y031021D01*
X120079Y029643D01*
X120571Y029643D01*
X120571Y028659D01*
X120079Y028659D01*
X120079Y027281D01*
X118307Y027281D01*
X119307Y026521D02*
X121079Y026521D01*
X121079Y025143D01*
X121571Y025143D01*
X121571Y024159D01*
X121079Y024159D01*
X121079Y022781D01*
X119307Y022781D01*
X119307Y026521D01*
X122807Y027281D02*
X122807Y031021D01*
X124579Y031021D01*
X124579Y029643D01*
X125071Y029643D01*
X125071Y028659D01*
X124579Y028659D01*
X124579Y027281D01*
X122807Y027281D01*
X123807Y026521D02*
X125579Y026521D01*
X125579Y025143D01*
X126071Y025143D01*
X126071Y024159D01*
X125579Y024159D01*
X125579Y022781D01*
X123807Y022781D01*
X123807Y026521D01*
X127307Y027281D02*
X127307Y031021D01*
X129079Y031021D01*
X129079Y029643D01*
X129571Y029643D01*
X129571Y028659D01*
X129079Y028659D01*
X129079Y027281D01*
X127307Y027281D01*
X128307Y026521D02*
X130079Y026521D01*
X130079Y025143D01*
X130571Y025143D01*
X130571Y024159D01*
X130079Y024159D01*
X130079Y022781D01*
X128307Y022781D01*
X128307Y026521D01*
X131807Y027281D02*
X131807Y031021D01*
X133579Y031021D01*
X133579Y029643D01*
X134071Y029643D01*
X134071Y028659D01*
X133579Y028659D01*
X133579Y027281D01*
X131807Y027281D01*
X132807Y026521D02*
X134579Y026521D01*
X134579Y025143D01*
X135071Y025143D01*
X135071Y024159D01*
X134579Y024159D01*
X134579Y022781D01*
X132807Y022781D01*
X132807Y026521D01*
X134579Y025143D02*
X134579Y024159D01*
X130079Y024159D02*
X130079Y025143D01*
X125579Y025143D02*
X125579Y024159D01*
X121079Y024159D02*
X121079Y025143D01*
X120079Y028659D02*
X120079Y029643D01*
X124579Y029643D02*
X124579Y028659D01*
X129079Y028659D02*
X129079Y029643D01*
X133579Y029643D02*
X133579Y028659D01*
X122717Y033364D02*
X122719Y033393D01*
X122725Y033422D01*
X122734Y033450D01*
X122748Y033476D01*
X122764Y033500D01*
X122784Y033522D01*
X122807Y033541D01*
X122831Y033557D01*
X122858Y033569D01*
X122886Y033578D01*
X122915Y033583D01*
X122944Y033584D01*
X122974Y033581D01*
X123002Y033574D01*
X123030Y033564D01*
X123055Y033549D01*
X123079Y033532D01*
X123100Y033512D01*
X123118Y033489D01*
X123133Y033463D01*
X123145Y033436D01*
X123153Y033408D01*
X123157Y033379D01*
X123157Y033349D01*
X123153Y033320D01*
X123145Y033292D01*
X123133Y033265D01*
X123118Y033239D01*
X123100Y033216D01*
X123079Y033196D01*
X123055Y033179D01*
X123030Y033164D01*
X123002Y033154D01*
X122974Y033147D01*
X122944Y033144D01*
X122915Y033145D01*
X122886Y033150D01*
X122858Y033159D01*
X122831Y033171D01*
X122807Y033187D01*
X122784Y033206D01*
X122764Y033228D01*
X122748Y033252D01*
X122734Y033278D01*
X122725Y033306D01*
X122719Y033335D01*
X122717Y033364D01*
X101717Y033364D02*
X101719Y033393D01*
X101725Y033422D01*
X101734Y033450D01*
X101748Y033476D01*
X101764Y033500D01*
X101784Y033522D01*
X101807Y033541D01*
X101831Y033557D01*
X101858Y033569D01*
X101886Y033578D01*
X101915Y033583D01*
X101944Y033584D01*
X101974Y033581D01*
X102002Y033574D01*
X102030Y033564D01*
X102055Y033549D01*
X102079Y033532D01*
X102100Y033512D01*
X102118Y033489D01*
X102133Y033463D01*
X102145Y033436D01*
X102153Y033408D01*
X102157Y033379D01*
X102157Y033349D01*
X102153Y033320D01*
X102145Y033292D01*
X102133Y033265D01*
X102118Y033239D01*
X102100Y033216D01*
X102079Y033196D01*
X102055Y033179D01*
X102030Y033164D01*
X102002Y033154D01*
X101974Y033147D01*
X101944Y033144D01*
X101915Y033145D01*
X101886Y033150D01*
X101858Y033159D01*
X101831Y033171D01*
X101807Y033187D01*
X101784Y033206D01*
X101764Y033228D01*
X101748Y033252D01*
X101734Y033278D01*
X101725Y033306D01*
X101719Y033335D01*
X101717Y033364D01*
X072717Y033364D02*
X072719Y033393D01*
X072725Y033422D01*
X072734Y033450D01*
X072748Y033476D01*
X072764Y033500D01*
X072784Y033522D01*
X072807Y033541D01*
X072831Y033557D01*
X072858Y033569D01*
X072886Y033578D01*
X072915Y033583D01*
X072944Y033584D01*
X072974Y033581D01*
X073002Y033574D01*
X073030Y033564D01*
X073055Y033549D01*
X073079Y033532D01*
X073100Y033512D01*
X073118Y033489D01*
X073133Y033463D01*
X073145Y033436D01*
X073153Y033408D01*
X073157Y033379D01*
X073157Y033349D01*
X073153Y033320D01*
X073145Y033292D01*
X073133Y033265D01*
X073118Y033239D01*
X073100Y033216D01*
X073079Y033196D01*
X073055Y033179D01*
X073030Y033164D01*
X073002Y033154D01*
X072974Y033147D01*
X072944Y033144D01*
X072915Y033145D01*
X072886Y033150D01*
X072858Y033159D01*
X072831Y033171D01*
X072807Y033187D01*
X072784Y033206D01*
X072764Y033228D01*
X072748Y033252D01*
X072734Y033278D01*
X072725Y033306D01*
X072719Y033335D01*
X072717Y033364D01*
X051717Y033364D02*
X051719Y033393D01*
X051725Y033422D01*
X051734Y033450D01*
X051748Y033476D01*
X051764Y033500D01*
X051784Y033522D01*
X051807Y033541D01*
X051831Y033557D01*
X051858Y033569D01*
X051886Y033578D01*
X051915Y033583D01*
X051944Y033584D01*
X051974Y033581D01*
X052002Y033574D01*
X052030Y033564D01*
X052055Y033549D01*
X052079Y033532D01*
X052100Y033512D01*
X052118Y033489D01*
X052133Y033463D01*
X052145Y033436D01*
X052153Y033408D01*
X052157Y033379D01*
X052157Y033349D01*
X052153Y033320D01*
X052145Y033292D01*
X052133Y033265D01*
X052118Y033239D01*
X052100Y033216D01*
X052079Y033196D01*
X052055Y033179D01*
X052030Y033164D01*
X052002Y033154D01*
X051974Y033147D01*
X051944Y033144D01*
X051915Y033145D01*
X051886Y033150D01*
X051858Y033159D01*
X051831Y033171D01*
X051807Y033187D01*
X051784Y033206D01*
X051764Y033228D01*
X051748Y033252D01*
X051734Y033278D01*
X051725Y033306D01*
X051719Y033335D01*
X051717Y033364D01*
D16*
X053457Y038217D03*
X053929Y038217D03*
X052929Y039030D03*
X052457Y039030D03*
X049429Y038217D03*
X048957Y038217D03*
X048429Y039030D03*
X047957Y039030D03*
X056957Y039030D03*
X057429Y039030D03*
X057957Y038217D03*
X058429Y038217D03*
X061457Y039030D03*
X061929Y039030D03*
X062457Y038217D03*
X062929Y038217D03*
X068957Y039030D03*
X069429Y039030D03*
X069957Y038217D03*
X070429Y038217D03*
X073457Y039030D03*
X073929Y039030D03*
X074395Y038217D03*
X074867Y038217D03*
X077957Y039030D03*
X078429Y039030D03*
X078895Y038217D03*
X079367Y038217D03*
X082457Y039030D03*
X082929Y039030D03*
X083457Y038217D03*
X083929Y038217D03*
X097957Y039030D03*
X098429Y039030D03*
X098957Y038217D03*
X099429Y038217D03*
X102457Y039030D03*
X102929Y039030D03*
X103457Y038217D03*
X103929Y038217D03*
X106957Y039030D03*
X107429Y039030D03*
X107957Y038217D03*
X108429Y038217D03*
X111457Y039030D03*
X111929Y039030D03*
X112457Y038217D03*
X112929Y038217D03*
X118957Y039030D03*
X119429Y039030D03*
X119957Y038217D03*
X120429Y038217D03*
X123457Y039030D03*
X123929Y039030D03*
X124457Y038217D03*
X124929Y038217D03*
X127957Y039030D03*
X128429Y039030D03*
X128957Y038217D03*
X129429Y038217D03*
X132457Y039030D03*
X132929Y039030D03*
X133457Y038217D03*
X133929Y038217D03*
D17*
X133693Y038217D03*
X132693Y039030D03*
X129193Y038217D03*
X128193Y039030D03*
X124693Y038217D03*
X123693Y039030D03*
X120193Y038217D03*
X119193Y039030D03*
X112693Y038217D03*
X111693Y039030D03*
X108193Y038217D03*
X107193Y039030D03*
X103693Y038217D03*
X102693Y039030D03*
X099193Y038217D03*
X098193Y039030D03*
X083693Y038217D03*
X082693Y039030D03*
X079131Y038217D03*
X078193Y039030D03*
X074631Y038217D03*
X073693Y039030D03*
X070193Y038217D03*
X069193Y039030D03*
X062693Y038217D03*
X061693Y039030D03*
X058193Y038217D03*
X057193Y039030D03*
X053693Y038217D03*
X052693Y039030D03*
X049193Y038217D03*
X048193Y039030D03*
D18*
X023973Y039243D02*
X023973Y037353D01*
X023303Y036684D01*
X023067Y036684D01*
X022319Y036684D02*
X022083Y036684D01*
X021414Y037353D01*
X021414Y039243D01*
X022319Y039243D01*
X023067Y039243D02*
X023973Y039243D01*
X022319Y039125D02*
X022255Y039103D01*
X022192Y039076D01*
X022130Y039046D01*
X022071Y039013D01*
X022013Y038977D01*
X021957Y038937D01*
X021904Y038894D01*
X021853Y038849D01*
X021805Y038801D01*
X021760Y038750D01*
X021717Y038696D01*
X021678Y038640D01*
X021641Y038583D01*
X021608Y038523D01*
X021579Y038461D01*
X021553Y038398D01*
X021530Y038334D01*
X021511Y038268D01*
X021496Y038201D01*
X021485Y038134D01*
X021477Y038066D01*
X021473Y037998D01*
X021473Y037930D01*
X021477Y037862D01*
X021485Y037794D01*
X021496Y037727D01*
X021511Y037660D01*
X021530Y037594D01*
X021553Y037530D01*
X021579Y037467D01*
X021608Y037405D01*
X021641Y037345D01*
X021678Y037288D01*
X021717Y037232D01*
X021760Y037178D01*
X021805Y037127D01*
X021853Y037079D01*
X021904Y037034D01*
X021957Y036991D01*
X022013Y036951D01*
X022071Y036915D01*
X022130Y036882D01*
X022192Y036852D01*
X022255Y036825D01*
X022319Y036803D01*
X023067Y036803D02*
X023131Y036825D01*
X023194Y036852D01*
X023256Y036882D01*
X023315Y036915D01*
X023373Y036951D01*
X023429Y036991D01*
X023482Y037034D01*
X023533Y037079D01*
X023581Y037127D01*
X023626Y037178D01*
X023669Y037232D01*
X023708Y037288D01*
X023745Y037345D01*
X023778Y037405D01*
X023807Y037467D01*
X023833Y037530D01*
X023856Y037594D01*
X023875Y037660D01*
X023890Y037727D01*
X023901Y037794D01*
X023909Y037862D01*
X023913Y037930D01*
X023913Y037998D01*
X023909Y038066D01*
X023901Y038134D01*
X023890Y038201D01*
X023875Y038268D01*
X023856Y038334D01*
X023833Y038398D01*
X023807Y038461D01*
X023778Y038523D01*
X023745Y038583D01*
X023708Y038640D01*
X023669Y038696D01*
X023626Y038750D01*
X023581Y038801D01*
X023533Y038849D01*
X023482Y038894D01*
X023429Y038937D01*
X023373Y038977D01*
X023315Y039013D01*
X023256Y039046D01*
X023194Y039076D01*
X023131Y039103D01*
X023067Y039125D01*
M02*
